<svg width="1440" height="169" viewBox="0 0 1440 169" fill="none" xmlns="http://www.w3.org/2000/svg">
<path d="M0 12H1077" stroke="white" stroke-opacity="0.8" stroke-width="1.5" stroke-dasharray="8 8"/>
<path d="M0 2H1077" stroke="white" stroke-opacity="0.8" stroke-width="2.5"/>
<path d="M344 156L1440 156" stroke="white" stroke-opacity="0.8" stroke-width="1.5" stroke-dasharray="8 8"/>
<path d="M344 167L1440 167" stroke="white" stroke-opacity="0.8" stroke-width="2.5"/>
<path d="M458.775 120.879C456.842 120.879 455.128 120.41 453.634 119.473C452.14 120.41 450.748 120.879 449.459 120.879C448.199 120.879 447.159 120.762 446.339 120.527C445.519 120.322 444.801 120.029 444.186 119.648C442.926 118.887 442.296 117.935 442.296 116.792C442.296 116.206 442.457 115.693 442.779 115.254C443.424 115.752 444.244 116.001 445.24 116.001C447.848 116.001 449.649 114.888 450.646 112.661V91.1719C450.646 89.8535 450.367 88.8428 449.811 88.1396C448.932 86.9971 447.423 85.9131 445.284 84.8877C447.247 83.9795 448.536 83.1885 449.151 82.5146C450.147 81.3721 450.646 80.0977 450.646 78.6914V60.1465C449.649 57.8906 447.848 56.7627 445.24 56.7627C444.244 56.7627 443.424 57.0117 442.779 57.5098C442.457 57.0703 442.296 56.5723 442.296 56.0156C442.296 55.4297 442.457 54.8877 442.779 54.3896C443.131 53.8916 443.6 53.4668 444.186 53.1152C445.533 52.2949 447.071 51.8848 448.8 51.8848C450.558 51.8848 452.169 52.3682 453.634 53.335C455.157 52.3682 456.856 51.8848 458.731 51.8848C460.782 51.8848 462.569 52.4268 464.093 53.5107C467.345 52.1338 470.582 51.4453 473.805 51.4453C477.027 51.4453 479.957 51.7676 482.594 52.4121C485.26 53.0273 487.662 53.9062 489.801 55.0488C494.459 57.5098 497.359 60.7031 498.502 64.6289C499.146 66.7969 500.538 68.4082 502.677 69.4629C500.304 71.1035 498.839 72.9785 498.282 75.0879C497.052 79.7168 494.562 82.7344 490.812 84.1406C496.319 85.6641 499.908 89.2676 501.578 94.9512C502.164 96.9727 503.556 98.6279 505.753 99.917C503.497 101.177 501.988 103.081 501.227 105.63C500.465 108.179 499.117 110.479 497.184 112.529C495.279 114.551 493.053 116.221 490.504 117.539C485.582 120.059 480.03 121.318 473.849 121.318C470.157 121.318 466.861 120.659 463.961 119.341C462.438 120.366 460.709 120.879 458.775 120.879ZM475.035 82.0312C477.613 82.0312 479.444 81.416 480.528 80.1855C481.671 78.9258 482.242 76.7578 482.242 73.6816V63.5303C482.242 61.7432 481.305 60.2344 479.43 59.0039C477.789 57.9199 476.266 57.3779 474.859 57.3779C473.482 57.3779 472.34 57.5537 471.432 57.9053C470.553 58.2275 469.762 58.6816 469.059 59.2676C467.564 60.498 466.817 61.9775 466.817 63.7061V82.0312H475.035ZM484.747 58.3887C485.743 60.6152 486.241 63.8672 486.241 68.1445C486.241 74.4434 485.831 78.5303 485.011 80.4053C486.241 80.1709 487.281 78.9844 488.131 76.8457C488.453 76.0547 488.688 75.2197 488.834 74.3408C489.01 73.4619 489.142 72.7881 489.229 72.3193C489.347 71.8213 489.508 71.3965 489.713 71.0449C490.152 70.3125 490.943 69.7559 492.086 69.375C490.914 68.9941 490.182 68.584 489.889 68.1445C489.508 67.6465 489.2 66.7383 488.966 65.4199C488.731 64.1016 488.453 63.0322 488.131 62.2119C487.809 61.3623 487.457 60.6738 487.076 60.1465C486.344 59.0918 485.567 58.5059 484.747 58.3887ZM454.864 108.354C456.329 107.798 457.135 105.879 457.281 102.598C457.457 99.3164 457.545 94.7754 457.545 88.9746C457.545 83.1738 457.53 79.3213 457.501 77.417C457.501 75.4834 457.486 73.9307 457.457 72.7588C457.369 69.3018 457.032 67.2217 456.446 66.5186C455.89 65.7861 455.362 65.3027 454.864 65.0684C454.864 75.2637 454.688 81.0645 454.337 82.4707C453.927 83.6426 452.931 84.4775 451.349 84.9756C453.106 85.5908 454.103 86.3379 454.337 87.2168C454.688 88.623 454.864 93.7646 454.864 102.642V108.354ZM466.817 108.53C466.817 110.581 467.594 112.266 469.146 113.584C470.641 114.814 472.428 115.43 474.508 115.43C476.529 115.43 478.229 114.99 479.605 114.111C482.242 112.383 483.561 110.405 483.561 108.179V95.3027C483.561 92.6367 482.696 90.6299 480.968 89.2822C479.503 88.1396 477.584 87.5684 475.211 87.5684H466.817V108.53ZM486.505 88.9307C487.208 90.5127 487.56 94.1748 487.56 99.917C487.56 107.183 487.296 111.445 486.769 112.705C487.384 112.588 488.014 111.841 488.658 110.464C489.303 109.087 489.757 107.666 490.021 106.201C490.284 104.736 490.46 103.74 490.548 103.213C490.665 102.686 490.826 102.217 491.031 101.807C491.5 100.928 492.291 100.298 493.404 99.917C491.646 99.3604 490.606 98.2471 490.284 96.5771C489.991 94.9072 489.698 93.6182 489.405 92.71C489.112 91.8018 488.805 91.084 488.482 90.5566C487.926 89.6191 487.267 89.0771 486.505 88.9307ZM530.714 119.473C529.22 120.41 527.521 120.879 525.616 120.879C523.712 120.879 522.013 120.41 520.519 119.473C519.024 120.41 517.633 120.879 516.344 120.879C515.084 120.879 514.044 120.762 513.224 120.527C512.403 120.322 511.686 120.029 511.07 119.648C509.811 118.887 509.181 117.935 509.181 116.792C509.181 116.206 509.342 115.693 509.664 115.254C510.309 115.752 511.129 116.001 512.125 116.001C514.732 116.001 516.534 114.888 517.53 112.661V91.1719C517.53 89.8242 517.252 88.8281 516.695 88.1836C515.816 87.0996 514.308 86.0303 512.169 84.9756C514.161 84.0674 515.45 83.2617 516.036 82.5586C517.032 81.416 517.53 80.127 517.53 78.6914V60.1465C516.534 57.8906 514.732 56.7627 512.125 56.7627C511.129 56.7627 510.309 57.0117 509.664 57.5098C509.342 57.0703 509.181 56.5723 509.181 56.0156C509.181 55.4297 509.342 54.8877 509.664 54.3896C510.016 53.8916 510.484 53.4668 511.07 53.1152C512.418 52.2949 513.956 51.8848 515.685 51.8848C517.442 51.8848 519.054 52.3682 520.519 53.335C522.042 52.3682 523.741 51.8848 525.616 51.8848C527.491 51.8848 529.19 52.3682 530.714 53.335C534.024 52.0752 537.687 51.4453 541.7 51.4453C545.743 51.4453 549.127 51.8115 551.852 52.5439C554.576 53.2764 556.92 54.3164 558.883 55.6641C562.838 58.3887 565.299 62.1826 566.266 67.0459C566.646 69.2139 568.038 70.8545 570.44 71.9678C568.155 73.2568 566.661 75.3076 565.958 78.1201C564.522 83.9209 560.934 87.5391 555.191 88.9746C558.15 89.7656 560.567 91.3916 562.442 93.8525C564.376 96.4014 565.343 99.4043 565.343 102.861V107.256C565.343 111.475 566.705 114.199 569.43 115.43C570.25 115.811 571.144 116.001 572.11 116.001C573.077 116.001 573.883 115.752 574.527 115.254C574.85 115.693 575.011 116.206 575.011 116.792C575.011 117.349 574.864 117.876 574.571 118.374C574.278 118.872 573.883 119.297 573.385 119.648C572.33 120.469 571.1 120.879 569.693 120.879C568.287 120.879 566.91 120.498 565.562 119.736C563.102 121.084 560.802 121.216 558.663 120.132C557.843 120.63 556.979 120.879 556.07 120.879C555.162 120.879 554.283 120.674 553.434 120.264C552.613 119.854 551.881 119.18 551.236 118.242C549.859 116.221 549.171 113.115 549.171 108.926V105.674C549.171 98.9062 547.237 94.5117 543.37 92.4902C542.081 91.8164 540.572 91.4795 538.844 91.4795H533.702V112.881C534.493 114.961 536.002 116.001 538.229 116.001C539.225 116.001 540.045 115.752 540.689 115.254C541.012 115.693 541.173 116.338 541.173 117.188C541.173 118.037 540.704 118.872 539.767 119.692C538.858 120.483 537.481 120.879 535.636 120.879C533.79 120.879 532.149 120.41 530.714 119.473ZM542.14 57.29C536.515 57.29 533.702 59.4727 533.702 63.8379V81.8115C533.702 83.335 534.303 84.3604 535.504 84.8877C536.646 85.3857 538.331 85.6348 540.558 85.6348C542.813 85.6348 544.381 85.5176 545.26 85.2832C546.168 85.0195 546.944 84.5801 547.589 83.9648C548.907 82.7051 549.566 80.5957 549.566 77.6367V64.8047C549.566 61.1426 548.043 58.7988 544.996 57.7734C544.088 57.4512 543.136 57.29 542.14 57.29ZM552.511 60.1025C553.419 62.1533 553.873 65.4346 553.873 69.9463C553.873 77.71 553.507 82.3535 552.774 83.877C554.386 83.5547 555.543 81.4014 556.246 77.417L556.598 75.6152C556.92 73.7109 557.857 72.4951 559.41 71.9678C558.268 71.5869 557.535 71.1328 557.213 70.6055C556.861 69.9902 556.539 68.9502 556.246 67.4854C555.982 65.9912 555.704 64.79 555.411 63.8818C555.118 62.9736 554.811 62.2559 554.488 61.7285C553.932 60.791 553.272 60.249 552.511 60.1025ZM521.749 108.354C523.214 107.798 524.02 105.879 524.166 102.598C524.342 99.3164 524.43 94.7754 524.43 88.9746C524.43 83.1738 524.415 79.3213 524.386 77.417C524.386 75.4834 524.371 73.9307 524.342 72.7588C524.254 69.3018 523.917 67.2217 523.331 66.5186C522.774 65.7861 522.247 65.3027 521.749 65.0684C521.749 75.2637 521.573 81.0645 521.222 82.4707C520.812 83.6426 519.815 84.4775 518.233 84.9756C519.991 85.5908 520.987 86.3379 521.222 87.2168C521.573 88.623 521.749 93.7646 521.749 102.642V108.354ZM552.071 96.3135C553.243 97.6318 553.829 99.2432 553.829 101.147V106.948C553.829 111.812 554.796 114.404 556.729 114.727C557.257 114.814 557.77 114.8 558.268 114.683C557.213 113.042 556.686 111.313 556.686 109.497V103.345C556.686 101.03 556.363 99.3896 555.719 98.4229C554.605 96.7822 553.39 96.0791 552.071 96.3135ZM589.557 113.496C587.125 110.977 585.147 107.944 583.624 104.399C582.13 100.854 581.207 97.5 580.855 94.3359C580.504 91.1719 579.962 88.9893 579.229 87.7881C578.526 86.5576 577.516 85.6201 576.197 84.9756C578.746 83.7744 580.24 81.3135 580.68 77.5928C581.148 73.8428 582.188 70.3418 583.8 67.0898C585.411 63.8379 587.462 61.0547 589.952 58.7402C595.196 53.877 601.51 51.4453 608.893 51.4453C616.48 51.4453 622.765 53.7012 627.745 58.2129C632.931 62.9004 635.978 69.4629 636.886 77.9004C637.267 81.416 638.761 83.7744 641.368 84.9756C638.819 86.2354 637.311 88.9014 636.842 92.9736C636.373 97.0459 635.45 100.854 634.073 104.399C632.696 107.944 630.851 110.977 628.536 113.496C623.702 118.711 617.169 121.318 608.937 121.318C601.056 121.318 594.596 118.711 589.557 113.496ZM603.927 84.9756C600.704 86.5283 599.093 89.0625 599.093 92.5781V105.63C599.093 110.405 601.07 113.467 605.025 114.814C606.197 115.225 607.472 115.43 608.849 115.43C610.226 115.43 611.485 115.225 612.628 114.814C613.8 114.404 614.811 113.789 615.66 112.969C617.418 111.27 618.297 108.823 618.297 105.63V92.5781C618.297 89.0625 616.715 86.5283 613.551 84.9756C616.715 83.5107 618.297 81.1523 618.297 77.9004V67.3975C618.297 64.1455 617.345 61.6113 615.44 59.7949C613.653 58.125 611.441 57.29 608.805 57.29C604.322 57.29 601.334 59.165 599.84 62.915C599.342 64.1748 599.093 65.6689 599.093 67.3975V77.9004C599.093 81.2109 600.704 83.5693 603.927 84.9756ZM622.34 65.0684C623.16 67.5293 623.57 71.7627 623.57 77.7686C623.57 81.167 623.424 83.0273 623.131 83.3496C622.838 83.6719 622.545 83.9355 622.252 84.1406C621.725 84.4922 621.153 84.7705 620.538 84.9756C622.296 85.7666 623.219 86.5283 623.307 87.2607C623.6 90.1318 623.746 92.6221 623.746 94.7314C623.746 96.8115 623.717 98.4961 623.658 99.7852C623.6 101.045 623.512 102.217 623.395 103.301C623.16 105.615 622.867 107.3 622.516 108.354C624.801 107.651 626.075 104.268 626.339 98.2031C626.485 94.8047 626.559 91.0254 626.559 86.8652C626.559 82.6758 626.515 79.541 626.427 77.4609C626.339 75.3516 626.207 73.623 626.031 72.2754C625.68 69.1699 624.947 67.0166 623.834 65.8154C623.512 65.4639 623.014 65.2148 622.34 65.0684ZM590.655 108.354C591.095 108.179 591.314 107.871 591.314 107.432C591.314 106.787 591.007 105.776 590.392 104.399C588.839 100.854 588.062 94.3799 588.062 84.9756C588.062 78.1201 588.883 72.29 590.523 67.4854C590.729 66.7529 590.831 66.1963 590.831 65.8154C590.831 65.4346 590.641 65.1855 590.26 65.0684C588.883 66.7969 587.901 68.5107 587.315 70.21C586.231 73.3154 585.367 77.5195 584.723 82.8223C584.635 83.584 583.771 84.3018 582.13 84.9756C583.771 85.708 584.635 86.4551 584.723 87.2168C585.777 96.2988 587.125 102.363 588.766 105.41C589.322 106.494 589.952 107.476 590.655 108.354ZM648.663 119.692C647.579 120.483 646.334 120.879 644.928 120.879C643.551 120.879 642.452 120.527 641.632 119.824C640.782 119.092 640.357 118.257 640.357 117.319C640.357 116.382 640.504 115.693 640.797 115.254C641.646 115.752 642.687 116.001 643.917 116.001C645.177 116.001 646.114 115.84 646.729 115.518C647.374 115.166 647.989 114.697 648.575 114.111L654.815 95.6104L655.694 92.5781C655.958 91.6699 656.09 90.835 656.09 90.0732C656.09 87.4072 654.83 85.708 652.311 84.9756C654.625 84.0967 656.251 83.1445 657.188 82.1191C658.653 80.5078 659.811 78.3838 660.66 75.7471L665.494 59.5312C664.557 58.2715 663.443 57.6416 662.154 57.6416C660.865 57.6416 659.664 57.9199 658.551 58.4766C658.258 57.9492 658.111 57.3633 658.111 56.7188C658.111 56.0449 658.243 55.415 658.507 54.8291C658.8 54.2432 659.195 53.7305 659.693 53.291C660.807 52.3535 662.389 51.8848 664.439 51.8848C666.49 51.8848 668.233 52.5 669.669 53.7305C671.134 52.5 672.95 51.8848 675.118 51.8848C677.315 51.8848 679.059 52.4707 680.348 53.6426C682.223 52.4707 684.127 51.8848 686.061 51.8848C687.994 51.8848 689.488 52.251 690.543 52.9834C691.627 53.7158 692.169 54.7119 692.169 55.9717C692.169 56.5576 691.993 57.0703 691.642 57.5098C690.968 57.0117 690.177 56.7627 689.269 56.7627C687.306 56.7627 686.031 58.0957 685.445 60.7617L691.07 78.7354C691.773 80.9912 693.531 82.749 696.344 84.0088C697.135 84.3604 697.94 84.6826 698.761 84.9756C695.831 85.9424 694.366 87.3926 694.366 89.3262C694.366 90.0586 694.483 90.7031 694.718 91.2598L703.111 113.76C704.4 115.107 705.704 115.781 707.022 115.781C708.341 115.781 709.366 115.532 710.099 115.034C710.421 115.269 710.582 115.708 710.582 116.353C710.582 116.997 710.479 117.598 710.274 118.154C710.069 118.682 709.747 119.15 709.308 119.561C708.37 120.439 706.993 120.879 705.177 120.879C703.36 120.879 701.778 120.381 700.431 119.385C698.907 120.381 697.179 120.879 695.245 120.879C693.341 120.879 691.7 120.396 690.323 119.429C689.005 120.396 687.452 120.879 685.665 120.879C683.878 120.879 682.398 120.513 681.227 119.78C680.055 119.019 679.439 117.949 679.381 116.572C679.381 115.752 679.542 115.239 679.864 115.034C680.655 115.532 681.461 115.781 682.281 115.781C684.01 115.781 685.226 115.43 685.929 114.727L682.589 103.521H658.814L655.914 113.232C657.115 115.078 658.565 116.001 660.265 116.001C661.993 116.001 663.282 115.752 664.132 115.254C664.454 115.781 664.615 116.514 664.615 117.451C664.615 118.359 664.161 119.165 663.253 119.868C662.345 120.542 661.173 120.879 659.737 120.879C658.302 120.879 656.983 120.513 655.782 119.78C654.728 120.513 653.512 120.879 652.135 120.879C650.787 120.879 649.63 120.483 648.663 119.692ZM680.787 97.5879L670.592 63.7061L660.572 97.5879H680.787ZM689.181 108.354C689.708 108.354 689.972 107.769 689.972 106.597C689.972 104.546 689.664 102.554 689.049 100.62L687.379 95.4785C686.207 91.6113 685.621 89.1797 685.621 88.1836C685.592 86.543 686.31 85.459 687.774 84.9316C685.753 84.5215 684.522 83.8916 684.083 83.042C683.878 82.6904 683.702 82.4121 683.556 82.207C683.438 82.002 683.307 81.7676 683.16 81.5039C683.043 81.2109 682.896 80.8447 682.721 80.4053C682.545 79.9658 682.311 79.3359 682.018 78.5156L679.293 70.2979C678.648 68.2471 677.696 66.6943 676.437 65.6396C676.056 65.3174 675.704 65.127 675.382 65.0684C677.345 72.1582 678.634 76.6992 679.249 78.6914C683.497 91.7578 686.046 99.5068 686.896 101.938L689.181 108.354ZM702.145 112.31L702.232 112.573L702.145 112.31ZM727.281 120.879C725.348 120.879 723.634 120.41 722.14 119.473C720.646 120.41 719.254 120.879 717.965 120.879C716.705 120.879 715.665 120.762 714.845 120.527C714.024 120.322 713.307 120.029 712.691 119.648C711.432 118.887 710.802 117.935 710.802 116.792C710.802 116.206 710.963 115.693 711.285 115.254C711.93 115.752 712.75 116.001 713.746 116.001C716.354 116.001 718.155 114.888 719.151 112.661V91.1719C719.151 89.8242 718.873 88.8281 718.316 88.1836C717.438 87.0996 715.929 86.0303 713.79 84.9756C715.782 84.0674 717.071 83.2617 717.657 82.5586C718.653 81.416 719.151 80.127 719.151 78.6914V60.1465C718.155 57.8906 716.354 56.7627 713.746 56.7627C712.75 56.7627 711.93 57.0117 711.285 57.5098C710.963 57.0703 710.802 56.5723 710.802 56.0156C710.802 55.4297 710.963 54.8877 711.285 54.3896C711.637 53.8916 712.105 53.4668 712.691 53.1152C714.039 52.2949 715.577 51.8848 717.306 51.8848C719.063 51.8848 720.675 52.3682 722.14 53.335C723.663 52.3682 725.274 51.8848 726.974 51.8848C728.702 51.8848 730.299 52.251 731.764 52.9834C735.221 51.958 738.429 51.4453 741.388 51.4453C744.347 51.4453 746.969 51.6064 749.254 51.9287C751.539 52.251 753.722 52.8223 755.802 53.6426C757.882 54.4336 759.83 55.5029 761.646 56.8506C763.492 58.1982 765.133 59.8828 766.568 61.9043C769.615 66.1523 771.563 71.7773 772.413 78.7793C772.589 80.5078 772.955 81.7236 773.512 82.4268C774.449 83.5693 775.724 84.4189 777.335 84.9756C775.636 85.6201 774.522 86.2793 773.995 86.9531C773.116 88.0664 772.589 89.4727 772.413 91.1719C771.446 100.898 768.18 108.398 762.613 113.672C757.252 118.77 750.294 121.318 741.739 121.318C738.312 121.318 735.235 120.791 732.511 119.736C731.192 120.498 729.449 120.879 727.281 120.879ZM735.323 113.101C736.729 114.683 738.59 115.474 740.904 115.474C743.248 115.474 745.27 115.02 746.969 114.111C748.697 113.174 750.147 111.738 751.319 109.805C753.692 105.85 754.879 99.6387 754.879 91.1719C754.879 89.3262 754.586 88.0664 754 87.3926C753.209 86.4551 751.905 85.6494 750.089 84.9756C751.876 84.3604 753.033 83.7451 753.561 83.1299C754.439 82.0752 754.879 80.7422 754.879 79.1309C754.879 77.4902 754.762 75.8643 754.527 74.2529C754.293 72.6416 753.912 71.0449 753.385 69.4629C752.887 67.8809 752.242 66.3721 751.451 64.9365C750.689 63.4717 749.767 62.1826 748.683 61.0693C746.31 58.6377 743.512 57.4219 740.289 57.4219C739.293 57.4219 738.326 57.4512 737.389 57.5098C736.451 57.5391 735.763 57.8174 735.323 58.3447V113.101ZM757.164 65.0684C759.361 71.1914 760.46 76.4355 760.46 80.8008C760.46 82.2949 760.328 83.1738 760.064 83.4375C759.83 83.7012 759.566 83.9355 759.273 84.1406C758.746 84.4922 758.175 84.7705 757.56 84.9756C759.317 85.7666 760.24 86.5283 760.328 87.2607C760.387 87.583 760.416 87.9053 760.416 88.2275V89.3262C760.416 93.2812 760.006 97.1191 759.186 100.84C758.365 104.531 757.75 107.036 757.34 108.354C758.658 107.974 759.61 107.109 760.196 105.762C760.812 104.385 761.324 102.92 761.734 101.367C762.174 99.7852 762.525 98.1152 762.789 96.3574C763.375 92.7539 763.668 88.9893 763.668 85.0635C763.668 78.0322 762.628 72.3633 760.548 68.0566C759.64 66.3574 758.512 65.3613 757.164 65.0684ZM723.37 108.354C724.835 107.798 725.641 105.879 725.787 102.598C725.963 99.3164 726.051 94.7754 726.051 88.9746C726.051 83.1738 726.036 79.3213 726.007 77.417C726.007 75.4834 725.992 73.9307 725.963 72.7588C725.875 69.3018 725.538 67.2217 724.952 66.5186C724.396 65.7861 723.868 65.3027 723.37 65.0684C723.37 75.2637 723.194 81.0645 722.843 82.4707C722.433 83.6426 721.437 84.4775 719.854 84.9756C721.612 85.5908 722.608 86.3379 722.843 87.2168C723.194 88.623 723.37 93.7646 723.37 102.642V108.354ZM792.848 118.286C790.504 120.63 788.277 121.802 786.168 121.802C784.82 121.802 783.912 121.304 783.443 120.308C784.117 119.487 784.454 118.257 784.454 116.616V115.957C784.454 115.781 784.439 115.62 784.41 115.474C782.945 114.155 782.213 112.603 782.213 110.815C782.213 108.999 783.062 107.153 784.762 105.278C784.264 104.282 784.015 103.228 784.015 102.114C784.015 100.972 784.176 99.917 784.498 98.9502C784.85 97.9541 785.318 97.0898 785.904 96.3574C787.135 94.7461 788.336 93.9404 789.508 93.9404C790.709 93.9404 791.559 94.4092 792.057 95.3467C791.002 96.46 790.475 98.2031 790.475 100.576C790.475 102.949 790.812 105.015 791.485 106.772C792.188 108.53 793.17 110.039 794.43 111.299C797.125 114.053 800.567 115.43 804.757 115.43C807.569 115.43 809.957 114.624 811.92 113.013C814.029 111.284 815.084 108.926 815.084 105.938C815.084 103.828 814.586 102.114 813.59 100.796C812.037 98.7451 809.605 96.5771 806.295 94.292C803.746 92.5049 801.71 91.6113 800.187 91.6113C798.634 91.6113 796.92 92.2412 795.045 93.501C795.543 92.0068 795.792 90.6152 795.792 89.3262C795.792 89.0332 795.514 88.6523 794.957 88.1836L793.331 86.7334C788.204 82.0166 785.172 77.6367 784.234 73.5938C783.912 72.1875 783.751 70.4297 783.751 68.3203C783.751 66.1816 784.264 64.0283 785.289 61.8604C786.344 59.6631 787.779 57.8027 789.596 56.2793C793.375 53.0566 798.18 51.4453 804.01 51.4453C807.555 51.4453 810.807 52.0166 813.766 53.1592C815.025 53.6572 816.461 53.9062 818.072 53.9062C818.746 53.9062 819.347 53.877 819.874 53.8184C820.431 53.7305 820.914 53.4229 821.324 52.8955C821.705 52.3389 821.896 51.8408 821.896 51.4014C821.896 50.9619 821.837 50.5957 821.72 50.3027C821.925 50.2148 822.203 50.1709 822.555 50.1709C822.936 50.1709 823.346 50.3027 823.785 50.5664C824.225 50.8008 824.62 51.1377 824.972 51.5771C825.763 52.5732 826.158 53.7012 826.158 54.9609C826.158 56.1914 825.807 57.1289 825.104 57.7734C826.1 58.6523 826.598 60.0146 826.598 61.8604C826.598 63.6768 825.982 65.2002 824.752 66.4307C824.986 67.2217 825.104 67.9395 825.104 68.584C825.104 69.1992 824.986 69.7998 824.752 70.3857C824.547 70.9424 824.254 71.4258 823.873 71.8359C823.023 72.7441 822.218 73.1982 821.456 73.1982C820.255 73.1982 819.244 72.9932 818.424 72.583C818.922 71.4111 819.171 70.1514 819.171 68.8037C819.171 67.4561 818.863 66.0791 818.248 64.6729C817.662 63.2373 816.827 61.9922 815.743 60.9375C813.458 58.7695 810.47 57.6855 806.778 57.6855C804.435 57.6855 802.516 58.4033 801.021 59.8389C799.615 61.1865 798.912 62.8125 798.912 64.7168C798.912 66.1523 799.264 67.3535 799.967 68.3203C801.197 69.9902 803.146 71.7188 805.812 73.5059L807.921 74.9121C809.093 75.6445 809.884 76.0107 810.294 76.0107C810.704 76.0107 811.114 75.9668 811.524 75.8789C811.935 75.791 812.389 75.6738 812.887 75.5273C813.941 75.1758 814.967 74.6777 815.963 74.0332L815.392 76.4941C815.216 77.3145 815.128 77.915 815.128 78.2959C815.128 78.9111 815.436 79.4678 816.051 79.9658C821.529 84.7119 825.191 88.6816 827.037 91.875C828.648 94.6582 829.454 97.6611 829.454 100.884C829.454 104.106 828.927 106.875 827.872 109.189C826.817 111.504 825.279 113.555 823.258 115.342C818.805 119.326 813.019 121.318 805.899 121.318C800.89 121.318 796.539 120.308 792.848 118.286ZM789.859 65.0684C788.746 65.5371 788.189 66.7529 788.189 68.7158C788.189 72.7295 790.87 77.1387 796.231 81.9434L798.868 84.3164C799.776 85.1367 800.172 85.7666 800.055 86.2061C799.967 86.6455 799.879 86.9971 799.791 87.2607C799.732 87.5244 799.659 87.7734 799.571 88.0078C799.483 88.2422 799.425 88.418 799.396 88.5352C800.421 87.9199 801.256 87.6123 801.9 87.6123C803.189 87.6123 804.405 87.9639 805.548 88.667C811.202 92.1826 815.04 95.3174 817.062 98.0713C818.526 100.093 819.288 102.612 819.347 105.63C819.347 106.714 819.273 107.622 819.127 108.354C820.68 107.358 821.456 105.776 821.456 103.608C821.456 101.499 821.163 99.873 820.577 98.7305C820.021 97.5879 819.361 96.5771 818.6 95.6982C817.838 94.79 816.842 93.8086 815.611 92.7539C814.41 91.6992 812.916 90.5566 811.129 89.3262L804.889 85.0635C799.762 81.6943 795.865 78.1348 793.199 74.3848C790.855 71.0742 789.742 67.9688 789.859 65.0684ZM857.403 119.473C855.909 120.41 854.21 120.879 852.306 120.879C850.401 120.879 848.702 120.41 847.208 119.473C845.714 120.41 844.322 120.879 843.033 120.879C841.773 120.879 840.733 120.762 839.913 120.527C839.093 120.322 838.375 120.029 837.76 119.648C836.5 118.887 835.87 117.935 835.87 116.792C835.87 116.206 836.031 115.693 836.354 115.254C836.998 115.752 837.818 116.001 838.814 116.001C841.422 116.001 843.224 114.888 844.22 112.661V91.1719C844.22 89.8242 843.941 88.8281 843.385 88.1836C842.506 87.0996 840.997 86.0303 838.858 84.9756C840.851 84.0674 842.14 83.2617 842.726 82.5586C843.722 81.416 844.22 80.127 844.22 78.6914V60.1465C843.224 57.8906 841.422 56.7627 838.814 56.7627C837.818 56.7627 836.998 57.0117 836.354 57.5098C836.031 57.0703 835.87 56.5723 835.87 56.0156C835.87 55.4297 836.031 54.8877 836.354 54.3896C836.705 53.8916 837.174 53.4668 837.76 53.1152C839.107 52.2949 840.646 51.8848 842.374 51.8848C844.132 51.8848 845.743 52.3682 847.208 53.335C848.731 52.3682 850.431 51.8848 852.306 51.8848C854.181 51.8848 855.88 52.3682 857.403 53.335C858.868 52.3682 860.245 51.8848 861.534 51.8848C862.823 51.8848 863.878 52.002 864.698 52.2363C865.519 52.4414 866.236 52.7344 866.852 53.1152C868.111 53.877 868.741 54.8291 868.741 55.9717C868.741 56.5576 868.58 57.0703 868.258 57.5098C867.613 57.0117 866.793 56.7627 865.797 56.7627C863.189 56.7627 861.388 57.8906 860.392 60.1465V78.6914C860.392 80.127 860.699 81.1963 861.314 81.8994C862.281 83.042 863.761 84.0674 865.753 84.9756C863.614 86.0303 862.252 86.8945 861.666 87.5684C860.816 88.623 860.392 89.8242 860.392 91.1719V112.661C861.388 114.888 863.189 116.001 865.797 116.001C866.793 116.001 867.613 115.752 868.258 115.254C868.58 115.693 868.741 116.206 868.741 116.792C868.741 117.349 868.565 117.876 868.214 118.374C867.892 118.872 867.438 119.297 866.852 119.648C865.504 120.469 863.966 120.879 862.237 120.879C860.509 120.879 858.897 120.41 857.403 119.473ZM848.438 108.354C849.903 107.798 850.709 105.879 850.855 102.598C851.031 99.3164 851.119 94.7754 851.119 88.9746C851.119 83.1738 851.104 79.3213 851.075 77.417C851.075 75.4834 851.061 73.9307 851.031 72.7588C850.943 69.3018 850.606 67.2217 850.021 66.5186C849.464 65.7861 848.937 65.3027 848.438 65.0684C848.438 75.2637 848.263 81.0645 847.911 82.4707C847.501 83.6426 846.505 84.4775 844.923 84.9756C846.681 85.5908 847.677 86.3379 847.911 87.2168C848.263 88.623 848.438 93.7646 848.438 102.642V108.354ZM891.812 120.879C889.879 120.879 888.165 120.41 886.671 119.473C885.177 120.41 883.785 120.879 882.496 120.879C881.236 120.879 880.196 120.762 879.376 120.527C878.556 120.322 877.838 120.029 877.223 119.648C875.963 118.887 875.333 117.935 875.333 116.792C875.333 116.206 875.494 115.693 875.816 115.254C876.461 115.752 877.281 116.001 878.277 116.001C880.885 116.001 882.687 114.888 883.683 112.661V91.1719C883.683 89.8242 883.404 88.8281 882.848 88.1836C881.969 87.0996 880.46 86.0303 878.321 84.9756C880.313 84.0674 881.603 83.2617 882.188 82.5586C883.185 81.416 883.683 80.127 883.683 78.6914V60.1465C882.687 57.8906 880.885 56.7627 878.277 56.7627C877.281 56.7627 876.461 57.0117 875.816 57.5098C875.494 57.0703 875.333 56.5723 875.333 56.0156C875.333 55.4297 875.494 54.8877 875.816 54.3896C876.168 53.8916 876.637 53.4668 877.223 53.1152C878.57 52.2949 880.108 51.8848 881.837 51.8848C883.595 51.8848 885.206 52.3682 886.671 53.335C888.194 52.3682 889.806 51.8848 891.505 51.8848C893.233 51.8848 894.83 52.251 896.295 52.9834C899.752 51.958 902.96 51.4453 905.919 51.4453C908.878 51.4453 911.5 51.6064 913.785 51.9287C916.07 52.251 918.253 52.8223 920.333 53.6426C922.413 54.4336 924.361 55.5029 926.178 56.8506C928.023 58.1982 929.664 59.8828 931.1 61.9043C934.146 66.1523 936.095 71.7773 936.944 78.7793C937.12 80.5078 937.486 81.7236 938.043 82.4268C938.98 83.5693 940.255 84.4189 941.866 84.9756C940.167 85.6201 939.054 86.2793 938.526 86.9531C937.647 88.0664 937.12 89.4727 936.944 91.1719C935.978 100.898 932.711 108.398 927.145 113.672C921.783 118.77 914.825 121.318 906.271 121.318C902.843 121.318 899.767 120.791 897.042 119.736C895.724 120.498 893.98 120.879 891.812 120.879ZM899.854 113.101C901.261 114.683 903.121 115.474 905.436 115.474C907.779 115.474 909.801 115.02 911.5 114.111C913.229 113.174 914.679 111.738 915.851 109.805C918.224 105.85 919.41 99.6387 919.41 91.1719C919.41 89.3262 919.117 88.0664 918.531 87.3926C917.74 86.4551 916.437 85.6494 914.62 84.9756C916.407 84.3604 917.564 83.7451 918.092 83.1299C918.971 82.0752 919.41 80.7422 919.41 79.1309C919.41 77.4902 919.293 75.8643 919.059 74.2529C918.824 72.6416 918.443 71.0449 917.916 69.4629C917.418 67.8809 916.773 66.3721 915.982 64.9365C915.221 63.4717 914.298 62.1826 913.214 61.0693C910.841 58.6377 908.043 57.4219 904.82 57.4219C903.824 57.4219 902.857 57.4512 901.92 57.5098C900.982 57.5391 900.294 57.8174 899.854 58.3447V113.101ZM921.695 65.0684C923.893 71.1914 924.991 76.4355 924.991 80.8008C924.991 82.2949 924.859 83.1738 924.596 83.4375C924.361 83.7012 924.098 83.9355 923.805 84.1406C923.277 84.4922 922.706 84.7705 922.091 84.9756C923.849 85.7666 924.771 86.5283 924.859 87.2607C924.918 87.583 924.947 87.9053 924.947 88.2275V89.3262C924.947 93.2812 924.537 97.1191 923.717 100.84C922.896 104.531 922.281 107.036 921.871 108.354C923.189 107.974 924.142 107.109 924.728 105.762C925.343 104.385 925.855 102.92 926.266 101.367C926.705 99.7852 927.057 98.1152 927.32 96.3574C927.906 92.7539 928.199 88.9893 928.199 85.0635C928.199 78.0322 927.159 72.3633 925.079 68.0566C924.171 66.3574 923.043 65.3613 921.695 65.0684ZM887.901 108.354C889.366 107.798 890.172 105.879 890.318 102.598C890.494 99.3164 890.582 94.7754 890.582 88.9746C890.582 83.1738 890.567 79.3213 890.538 77.417C890.538 75.4834 890.523 73.9307 890.494 72.7588C890.406 69.3018 890.069 67.2217 889.483 66.5186C888.927 65.7861 888.399 65.3027 887.901 65.0684C887.901 75.2637 887.726 81.0645 887.374 82.4707C886.964 83.6426 885.968 84.4775 884.386 84.9756C886.144 85.5908 887.14 86.3379 887.374 87.2168C887.726 88.623 887.901 93.7646 887.901 102.642V108.354ZM961.686 120.879C959.752 120.879 958.038 120.41 956.544 119.473C955.05 120.41 953.658 120.879 952.369 120.879C951.109 120.879 950.069 120.762 949.249 120.527C948.429 120.322 947.711 120.029 947.096 119.648C945.836 118.887 945.206 117.935 945.206 116.792C945.206 116.206 945.367 115.693 945.689 115.254C946.334 115.752 947.154 116.001 948.15 116.001C950.758 116.001 952.56 114.888 953.556 112.661V91.1719C953.556 89.8242 953.277 88.8281 952.721 88.1836C951.842 87.0996 950.333 86.0303 948.194 84.9756C950.187 84.0674 951.476 83.2617 952.062 82.5586C953.058 81.416 953.556 80.127 953.556 78.6914V60.1465C952.56 57.8906 950.758 56.7627 948.15 56.7627C947.154 56.7627 946.334 57.0117 945.689 57.5098C945.367 57.0703 945.206 56.5723 945.206 56.0156C945.206 55.4297 945.367 54.8877 945.689 54.3896C946.041 53.8916 946.51 53.4668 947.096 53.1152C948.443 52.2949 949.981 51.8848 951.71 51.8848C953.468 51.8848 955.079 52.3682 956.544 53.335C958.067 52.3682 959.811 51.8848 961.773 51.8848C963.736 51.8848 965.523 52.4561 967.135 53.5986C970.24 52.4561 973.829 51.8848 977.901 51.8848C980.919 51.8848 983.497 52.1777 985.636 52.7637L989.547 53.8184C990.016 53.9355 990.47 53.9941 990.909 53.9941C991.729 53.9941 992.14 53.4082 992.14 52.2363C992.14 51.9434 992.037 51.4453 991.832 50.7422C992.652 50.5957 993.692 50.5225 994.952 50.5225C996.212 50.5225 997.281 50.9473 998.16 51.7969C999.039 52.6172 999.479 53.8184 999.479 55.4004C999.479 56.9531 999.2 58.0957 998.644 58.8281C999.435 60 999.83 61.4355 999.83 63.1348C999.83 64.8047 999.259 66.2109 998.116 67.3535C998.468 68.2324 998.644 69.0967 998.644 69.9463C998.644 70.7666 998.497 71.5283 998.204 72.2314C997.94 72.9053 997.604 73.4766 997.193 73.9453C996.373 74.7949 995.538 75.2197 994.688 75.2197C993.458 75.2197 992.345 74.9561 991.349 74.4287C991.7 73.7256 991.876 72.6855 991.876 71.3086C991.876 68.0859 991.07 65.2588 989.459 62.8271C987.262 59.4873 983.966 57.8174 979.571 57.8174C977.345 57.8174 975.323 58.3594 973.507 59.4434C971.72 60.5273 970.46 62.0801 969.728 64.1016V81.1084C970.753 81.7529 971.705 82.0752 972.584 82.0752C973.492 82.0752 974.166 82.0605 974.605 82.0312C975.074 82.002 975.543 81.9434 976.012 81.8555C977.213 81.6797 978.136 81.4453 978.78 81.1523C980.011 80.5664 980.626 79.1309 980.626 76.8457C980.626 75.5566 980.318 74.5605 979.703 73.8574C980.289 73.4473 981.021 73.2422 981.9 73.2422C983.863 73.2422 985.284 74.0332 986.163 75.6152C986.485 76.1719 986.646 76.7871 986.646 77.4609C986.646 78.1348 986.471 78.9697 986.119 79.9658C987.32 81.3428 987.921 82.9834 987.921 84.8877C987.921 86.7627 987.32 88.3887 986.119 89.7656C986.471 90.7617 986.646 91.6699 986.646 92.4902C986.646 93.2812 986.485 94.043 986.163 94.7754C985.841 95.5078 985.445 96.0938 984.977 96.5332C984.068 97.3535 983.043 97.7637 981.9 97.7637C981.08 97.7637 980.348 97.5293 979.703 97.0605C980.318 96.0352 980.626 94.834 980.626 93.457C980.626 90.7324 979.879 89.0479 978.385 88.4033C977.066 87.876 975.558 87.6123 973.858 87.6123C972.159 87.6123 970.782 87.9199 969.728 88.5352V110.508C971.427 113.496 974.708 114.99 979.571 114.99C985.079 114.99 988.829 113.291 990.821 109.893C993.136 105.996 994.293 101.821 994.293 97.3682C994.293 96.0791 994.176 95.083 993.941 94.3799C994.674 93.6475 995.436 93.2812 996.227 93.2812C997.018 93.2812 997.618 93.3984 998.028 93.6328C998.438 93.8379 998.805 94.1016 999.127 94.4238C999.83 95.2148 1000.18 96.0205 1000.18 96.8408L999.918 98.9941C999.918 99.5508 1000.06 100.005 1000.36 100.356C1000.94 100.972 1001.24 101.558 1001.24 102.114C1001.24 102.642 1001.06 103.286 1000.71 104.048C1001.38 104.429 1001.98 105 1002.51 105.762C1003.07 106.494 1003.35 107.256 1003.35 108.047C1003.35 109.717 1002.64 111.211 1001.24 112.529C1001.85 113.408 1002.16 114.683 1002.16 116.353C1002.16 117.993 1001.68 119.385 1000.71 120.527C999.771 121.699 998.541 122.285 997.018 122.285C996.197 122.285 995.348 122.197 994.469 122.021C994.586 121.377 994.645 120.732 994.645 120.088C994.645 118.74 994.029 118.066 992.799 118.066C991.422 118.066 990.045 118.345 988.668 118.901C985.416 120.22 981.71 120.879 977.55 120.879C973.419 120.879 969.903 120.337 967.003 119.253C965.479 120.337 963.707 120.879 961.686 120.879ZM957.774 108.354C959.239 107.798 960.045 105.879 960.191 102.598C960.367 99.3164 960.455 94.7754 960.455 88.9746C960.455 83.1738 960.44 79.3213 960.411 77.417C960.411 75.4834 960.396 73.9307 960.367 72.7588C960.279 69.3018 959.942 67.2217 959.356 66.5186C958.8 65.7861 958.272 65.3027 957.774 65.0684C957.774 75.2637 957.599 81.0645 957.247 82.4707C956.837 83.6426 955.841 84.4775 954.259 84.9756C956.017 85.5908 957.013 86.3379 957.247 87.2168C957.599 88.623 957.774 93.7646 957.774 102.642V108.354ZM968.849 107.915C968.849 108.003 968.863 108.076 968.893 108.135L968.849 107.915Z" fill="#613104"/>
<path d="M448.775 121.879C446.842 121.879 445.128 121.41 443.634 120.473C442.14 121.41 440.748 121.879 439.459 121.879C438.199 121.879 437.159 121.762 436.339 121.527C435.519 121.322 434.801 121.029 434.186 120.648C432.926 119.887 432.296 118.935 432.296 117.792C432.296 117.206 432.457 116.693 432.779 116.254C433.424 116.752 434.244 117.001 435.24 117.001C437.848 117.001 439.649 115.888 440.646 113.661V92.1719C440.646 90.8535 440.367 89.8428 439.811 89.1396C438.932 87.9971 437.423 86.9131 435.284 85.8877C437.247 84.9795 438.536 84.1885 439.151 83.5146C440.147 82.3721 440.646 81.0977 440.646 79.6914V61.1465C439.649 58.8906 437.848 57.7627 435.24 57.7627C434.244 57.7627 433.424 58.0117 432.779 58.5098C432.457 58.0703 432.296 57.5723 432.296 57.0156C432.296 56.4297 432.457 55.8877 432.779 55.3896C433.131 54.8916 433.6 54.4668 434.186 54.1152C435.533 53.2949 437.071 52.8848 438.8 52.8848C440.558 52.8848 442.169 53.3682 443.634 54.335C445.157 53.3682 446.856 52.8848 448.731 52.8848C450.782 52.8848 452.569 53.4268 454.093 54.5107C457.345 53.1338 460.582 52.4453 463.805 52.4453C467.027 52.4453 469.957 52.7676 472.594 53.4121C475.26 54.0273 477.662 54.9062 479.801 56.0488C484.459 58.5098 487.359 61.7031 488.502 65.6289C489.146 67.7969 490.538 69.4082 492.677 70.4629C490.304 72.1035 488.839 73.9785 488.282 76.0879C487.052 80.7168 484.562 83.7344 480.812 85.1406C486.319 86.6641 489.908 90.2676 491.578 95.9512C492.164 97.9727 493.556 99.6279 495.753 100.917C493.497 102.177 491.988 104.081 491.227 106.63C490.465 109.179 489.117 111.479 487.184 113.529C485.279 115.551 483.053 117.221 480.504 118.539C475.582 121.059 470.03 122.318 463.849 122.318C460.157 122.318 456.861 121.659 453.961 120.341C452.438 121.366 450.709 121.879 448.775 121.879ZM465.035 83.0312C467.613 83.0312 469.444 82.416 470.528 81.1855C471.671 79.9258 472.242 77.7578 472.242 74.6816V64.5303C472.242 62.7432 471.305 61.2344 469.43 60.0039C467.789 58.9199 466.266 58.3779 464.859 58.3779C463.482 58.3779 462.34 58.5537 461.432 58.9053C460.553 59.2275 459.762 59.6816 459.059 60.2676C457.564 61.498 456.817 62.9775 456.817 64.7061V83.0312H465.035ZM474.747 59.3887C475.743 61.6152 476.241 64.8672 476.241 69.1445C476.241 75.4434 475.831 79.5303 475.011 81.4053C476.241 81.1709 477.281 79.9844 478.131 77.8457C478.453 77.0547 478.688 76.2197 478.834 75.3408C479.01 74.4619 479.142 73.7881 479.229 73.3193C479.347 72.8213 479.508 72.3965 479.713 72.0449C480.152 71.3125 480.943 70.7559 482.086 70.375C480.914 69.9941 480.182 69.584 479.889 69.1445C479.508 68.6465 479.2 67.7383 478.966 66.4199C478.731 65.1016 478.453 64.0322 478.131 63.2119C477.809 62.3623 477.457 61.6738 477.076 61.1465C476.344 60.0918 475.567 59.5059 474.747 59.3887ZM444.864 109.354C446.329 108.798 447.135 106.879 447.281 103.598C447.457 100.316 447.545 95.7754 447.545 89.9746C447.545 84.1738 447.53 80.3213 447.501 78.417C447.501 76.4834 447.486 74.9307 447.457 73.7588C447.369 70.3018 447.032 68.2217 446.446 67.5186C445.89 66.7861 445.362 66.3027 444.864 66.0684C444.864 76.2637 444.688 82.0645 444.337 83.4707C443.927 84.6426 442.931 85.4775 441.349 85.9756C443.106 86.5908 444.103 87.3379 444.337 88.2168C444.688 89.623 444.864 94.7646 444.864 103.642V109.354ZM456.817 109.53C456.817 111.581 457.594 113.266 459.146 114.584C460.641 115.814 462.428 116.43 464.508 116.43C466.529 116.43 468.229 115.99 469.605 115.111C472.242 113.383 473.561 111.405 473.561 109.179V96.3027C473.561 93.6367 472.696 91.6299 470.968 90.2822C469.503 89.1396 467.584 88.5684 465.211 88.5684H456.817V109.53ZM476.505 89.9307C477.208 91.5127 477.56 95.1748 477.56 100.917C477.56 108.183 477.296 112.445 476.769 113.705C477.384 113.588 478.014 112.841 478.658 111.464C479.303 110.087 479.757 108.666 480.021 107.201C480.284 105.736 480.46 104.74 480.548 104.213C480.665 103.686 480.826 103.217 481.031 102.807C481.5 101.928 482.291 101.298 483.404 100.917C481.646 100.36 480.606 99.2471 480.284 97.5771C479.991 95.9072 479.698 94.6182 479.405 93.71C479.112 92.8018 478.805 92.084 478.482 91.5566C477.926 90.6191 477.267 90.0771 476.505 89.9307ZM520.714 120.473C519.22 121.41 517.521 121.879 515.616 121.879C513.712 121.879 512.013 121.41 510.519 120.473C509.024 121.41 507.633 121.879 506.344 121.879C505.084 121.879 504.044 121.762 503.224 121.527C502.403 121.322 501.686 121.029 501.07 120.648C499.811 119.887 499.181 118.935 499.181 117.792C499.181 117.206 499.342 116.693 499.664 116.254C500.309 116.752 501.129 117.001 502.125 117.001C504.732 117.001 506.534 115.888 507.53 113.661V92.1719C507.53 90.8242 507.252 89.8281 506.695 89.1836C505.816 88.0996 504.308 87.0303 502.169 85.9756C504.161 85.0674 505.45 84.2617 506.036 83.5586C507.032 82.416 507.53 81.127 507.53 79.6914V61.1465C506.534 58.8906 504.732 57.7627 502.125 57.7627C501.129 57.7627 500.309 58.0117 499.664 58.5098C499.342 58.0703 499.181 57.5723 499.181 57.0156C499.181 56.4297 499.342 55.8877 499.664 55.3896C500.016 54.8916 500.484 54.4668 501.07 54.1152C502.418 53.2949 503.956 52.8848 505.685 52.8848C507.442 52.8848 509.054 53.3682 510.519 54.335C512.042 53.3682 513.741 52.8848 515.616 52.8848C517.491 52.8848 519.19 53.3682 520.714 54.335C524.024 53.0752 527.687 52.4453 531.7 52.4453C535.743 52.4453 539.127 52.8115 541.852 53.5439C544.576 54.2764 546.92 55.3164 548.883 56.6641C552.838 59.3887 555.299 63.1826 556.266 68.0459C556.646 70.2139 558.038 71.8545 560.44 72.9678C558.155 74.2568 556.661 76.3076 555.958 79.1201C554.522 84.9209 550.934 88.5391 545.191 89.9746C548.15 90.7656 550.567 92.3916 552.442 94.8525C554.376 97.4014 555.343 100.404 555.343 103.861V108.256C555.343 112.475 556.705 115.199 559.43 116.43C560.25 116.811 561.144 117.001 562.11 117.001C563.077 117.001 563.883 116.752 564.527 116.254C564.85 116.693 565.011 117.206 565.011 117.792C565.011 118.349 564.864 118.876 564.571 119.374C564.278 119.872 563.883 120.297 563.385 120.648C562.33 121.469 561.1 121.879 559.693 121.879C558.287 121.879 556.91 121.498 555.562 120.736C553.102 122.084 550.802 122.216 548.663 121.132C547.843 121.63 546.979 121.879 546.07 121.879C545.162 121.879 544.283 121.674 543.434 121.264C542.613 120.854 541.881 120.18 541.236 119.242C539.859 117.221 539.171 114.115 539.171 109.926V106.674C539.171 99.9062 537.237 95.5117 533.37 93.4902C532.081 92.8164 530.572 92.4795 528.844 92.4795H523.702V113.881C524.493 115.961 526.002 117.001 528.229 117.001C529.225 117.001 530.045 116.752 530.689 116.254C531.012 116.693 531.173 117.338 531.173 118.188C531.173 119.037 530.704 119.872 529.767 120.692C528.858 121.483 527.481 121.879 525.636 121.879C523.79 121.879 522.149 121.41 520.714 120.473ZM532.14 58.29C526.515 58.29 523.702 60.4727 523.702 64.8379V82.8115C523.702 84.335 524.303 85.3604 525.504 85.8877C526.646 86.3857 528.331 86.6348 530.558 86.6348C532.813 86.6348 534.381 86.5176 535.26 86.2832C536.168 86.0195 536.944 85.5801 537.589 84.9648C538.907 83.7051 539.566 81.5957 539.566 78.6367V65.8047C539.566 62.1426 538.043 59.7988 534.996 58.7734C534.088 58.4512 533.136 58.29 532.14 58.29ZM542.511 61.1025C543.419 63.1533 543.873 66.4346 543.873 70.9463C543.873 78.71 543.507 83.3535 542.774 84.877C544.386 84.5547 545.543 82.4014 546.246 78.417L546.598 76.6152C546.92 74.7109 547.857 73.4951 549.41 72.9678C548.268 72.5869 547.535 72.1328 547.213 71.6055C546.861 70.9902 546.539 69.9502 546.246 68.4854C545.982 66.9912 545.704 65.79 545.411 64.8818C545.118 63.9736 544.811 63.2559 544.488 62.7285C543.932 61.791 543.272 61.249 542.511 61.1025ZM511.749 109.354C513.214 108.798 514.02 106.879 514.166 103.598C514.342 100.316 514.43 95.7754 514.43 89.9746C514.43 84.1738 514.415 80.3213 514.386 78.417C514.386 76.4834 514.371 74.9307 514.342 73.7588C514.254 70.3018 513.917 68.2217 513.331 67.5186C512.774 66.7861 512.247 66.3027 511.749 66.0684C511.749 76.2637 511.573 82.0645 511.222 83.4707C510.812 84.6426 509.815 85.4775 508.233 85.9756C509.991 86.5908 510.987 87.3379 511.222 88.2168C511.573 89.623 511.749 94.7646 511.749 103.642V109.354ZM542.071 97.3135C543.243 98.6318 543.829 100.243 543.829 102.147V107.948C543.829 112.812 544.796 115.404 546.729 115.727C547.257 115.814 547.77 115.8 548.268 115.683C547.213 114.042 546.686 112.313 546.686 110.497V104.345C546.686 102.03 546.363 100.39 545.719 99.4229C544.605 97.7822 543.39 97.0791 542.071 97.3135ZM579.557 114.496C577.125 111.977 575.147 108.944 573.624 105.399C572.13 101.854 571.207 98.5 570.855 95.3359C570.504 92.1719 569.962 89.9893 569.229 88.7881C568.526 87.5576 567.516 86.6201 566.197 85.9756C568.746 84.7744 570.24 82.3135 570.68 78.5928C571.148 74.8428 572.188 71.3418 573.8 68.0898C575.411 64.8379 577.462 62.0547 579.952 59.7402C585.196 54.877 591.51 52.4453 598.893 52.4453C606.48 52.4453 612.765 54.7012 617.745 59.2129C622.931 63.9004 625.978 70.4629 626.886 78.9004C627.267 82.416 628.761 84.7744 631.368 85.9756C628.819 87.2354 627.311 89.9014 626.842 93.9736C626.373 98.0459 625.45 101.854 624.073 105.399C622.696 108.944 620.851 111.977 618.536 114.496C613.702 119.711 607.169 122.318 598.937 122.318C591.056 122.318 584.596 119.711 579.557 114.496ZM593.927 85.9756C590.704 87.5283 589.093 90.0625 589.093 93.5781V106.63C589.093 111.405 591.07 114.467 595.025 115.814C596.197 116.225 597.472 116.43 598.849 116.43C600.226 116.43 601.485 116.225 602.628 115.814C603.8 115.404 604.811 114.789 605.66 113.969C607.418 112.27 608.297 109.823 608.297 106.63V93.5781C608.297 90.0625 606.715 87.5283 603.551 85.9756C606.715 84.5107 608.297 82.1523 608.297 78.9004V68.3975C608.297 65.1455 607.345 62.6113 605.44 60.7949C603.653 59.125 601.441 58.29 598.805 58.29C594.322 58.29 591.334 60.165 589.84 63.915C589.342 65.1748 589.093 66.6689 589.093 68.3975V78.9004C589.093 82.2109 590.704 84.5693 593.927 85.9756ZM612.34 66.0684C613.16 68.5293 613.57 72.7627 613.57 78.7686C613.57 82.167 613.424 84.0273 613.131 84.3496C612.838 84.6719 612.545 84.9355 612.252 85.1406C611.725 85.4922 611.153 85.7705 610.538 85.9756C612.296 86.7666 613.219 87.5283 613.307 88.2607C613.6 91.1318 613.746 93.6221 613.746 95.7314C613.746 97.8115 613.717 99.4961 613.658 100.785C613.6 102.045 613.512 103.217 613.395 104.301C613.16 106.615 612.867 108.3 612.516 109.354C614.801 108.651 616.075 105.268 616.339 99.2031C616.485 95.8047 616.559 92.0254 616.559 87.8652C616.559 83.6758 616.515 80.541 616.427 78.4609C616.339 76.3516 616.207 74.623 616.031 73.2754C615.68 70.1699 614.947 68.0166 613.834 66.8154C613.512 66.4639 613.014 66.2148 612.34 66.0684ZM580.655 109.354C581.095 109.179 581.314 108.871 581.314 108.432C581.314 107.787 581.007 106.776 580.392 105.399C578.839 101.854 578.062 95.3799 578.062 85.9756C578.062 79.1201 578.883 73.29 580.523 68.4854C580.729 67.7529 580.831 67.1963 580.831 66.8154C580.831 66.4346 580.641 66.1855 580.26 66.0684C578.883 67.7969 577.901 69.5107 577.315 71.21C576.231 74.3154 575.367 78.5195 574.723 83.8223C574.635 84.584 573.771 85.3018 572.13 85.9756C573.771 86.708 574.635 87.4551 574.723 88.2168C575.777 97.2988 577.125 103.363 578.766 106.41C579.322 107.494 579.952 108.476 580.655 109.354ZM638.663 120.692C637.579 121.483 636.334 121.879 634.928 121.879C633.551 121.879 632.452 121.527 631.632 120.824C630.782 120.092 630.357 119.257 630.357 118.319C630.357 117.382 630.504 116.693 630.797 116.254C631.646 116.752 632.687 117.001 633.917 117.001C635.177 117.001 636.114 116.84 636.729 116.518C637.374 116.166 637.989 115.697 638.575 115.111L644.815 96.6104L645.694 93.5781C645.958 92.6699 646.09 91.835 646.09 91.0732C646.09 88.4072 644.83 86.708 642.311 85.9756C644.625 85.0967 646.251 84.1445 647.188 83.1191C648.653 81.5078 649.811 79.3838 650.66 76.7471L655.494 60.5312C654.557 59.2715 653.443 58.6416 652.154 58.6416C650.865 58.6416 649.664 58.9199 648.551 59.4766C648.258 58.9492 648.111 58.3633 648.111 57.7188C648.111 57.0449 648.243 56.415 648.507 55.8291C648.8 55.2432 649.195 54.7305 649.693 54.291C650.807 53.3535 652.389 52.8848 654.439 52.8848C656.49 52.8848 658.233 53.5 659.669 54.7305C661.134 53.5 662.95 52.8848 665.118 52.8848C667.315 52.8848 669.059 53.4707 670.348 54.6426C672.223 53.4707 674.127 52.8848 676.061 52.8848C677.994 52.8848 679.488 53.251 680.543 53.9834C681.627 54.7158 682.169 55.7119 682.169 56.9717C682.169 57.5576 681.993 58.0703 681.642 58.5098C680.968 58.0117 680.177 57.7627 679.269 57.7627C677.306 57.7627 676.031 59.0957 675.445 61.7617L681.07 79.7354C681.773 81.9912 683.531 83.749 686.344 85.0088C687.135 85.3604 687.94 85.6826 688.761 85.9756C685.831 86.9424 684.366 88.3926 684.366 90.3262C684.366 91.0586 684.483 91.7031 684.718 92.2598L693.111 114.76C694.4 116.107 695.704 116.781 697.022 116.781C698.341 116.781 699.366 116.532 700.099 116.034C700.421 116.269 700.582 116.708 700.582 117.353C700.582 117.997 700.479 118.598 700.274 119.154C700.069 119.682 699.747 120.15 699.308 120.561C698.37 121.439 696.993 121.879 695.177 121.879C693.36 121.879 691.778 121.381 690.431 120.385C688.907 121.381 687.179 121.879 685.245 121.879C683.341 121.879 681.7 121.396 680.323 120.429C679.005 121.396 677.452 121.879 675.665 121.879C673.878 121.879 672.398 121.513 671.227 120.78C670.055 120.019 669.439 118.949 669.381 117.572C669.381 116.752 669.542 116.239 669.864 116.034C670.655 116.532 671.461 116.781 672.281 116.781C674.01 116.781 675.226 116.43 675.929 115.727L672.589 104.521H648.814L645.914 114.232C647.115 116.078 648.565 117.001 650.265 117.001C651.993 117.001 653.282 116.752 654.132 116.254C654.454 116.781 654.615 117.514 654.615 118.451C654.615 119.359 654.161 120.165 653.253 120.868C652.345 121.542 651.173 121.879 649.737 121.879C648.302 121.879 646.983 121.513 645.782 120.78C644.728 121.513 643.512 121.879 642.135 121.879C640.787 121.879 639.63 121.483 638.663 120.692ZM670.787 98.5879L660.592 64.7061L650.572 98.5879H670.787ZM679.181 109.354C679.708 109.354 679.972 108.769 679.972 107.597C679.972 105.546 679.664 103.554 679.049 101.62L677.379 96.4785C676.207 92.6113 675.621 90.1797 675.621 89.1836C675.592 87.543 676.31 86.459 677.774 85.9316C675.753 85.5215 674.522 84.8916 674.083 84.042C673.878 83.6904 673.702 83.4121 673.556 83.207C673.438 83.002 673.307 82.7676 673.16 82.5039C673.043 82.2109 672.896 81.8447 672.721 81.4053C672.545 80.9658 672.311 80.3359 672.018 79.5156L669.293 71.2979C668.648 69.2471 667.696 67.6943 666.437 66.6396C666.056 66.3174 665.704 66.127 665.382 66.0684C667.345 73.1582 668.634 77.6992 669.249 79.6914C673.497 92.7578 676.046 100.507 676.896 102.938L679.181 109.354ZM692.145 113.31L692.232 113.573L692.145 113.31ZM717.281 121.879C715.348 121.879 713.634 121.41 712.14 120.473C710.646 121.41 709.254 121.879 707.965 121.879C706.705 121.879 705.665 121.762 704.845 121.527C704.024 121.322 703.307 121.029 702.691 120.648C701.432 119.887 700.802 118.935 700.802 117.792C700.802 117.206 700.963 116.693 701.285 116.254C701.93 116.752 702.75 117.001 703.746 117.001C706.354 117.001 708.155 115.888 709.151 113.661V92.1719C709.151 90.8242 708.873 89.8281 708.316 89.1836C707.438 88.0996 705.929 87.0303 703.79 85.9756C705.782 85.0674 707.071 84.2617 707.657 83.5586C708.653 82.416 709.151 81.127 709.151 79.6914V61.1465C708.155 58.8906 706.354 57.7627 703.746 57.7627C702.75 57.7627 701.93 58.0117 701.285 58.5098C700.963 58.0703 700.802 57.5723 700.802 57.0156C700.802 56.4297 700.963 55.8877 701.285 55.3896C701.637 54.8916 702.105 54.4668 702.691 54.1152C704.039 53.2949 705.577 52.8848 707.306 52.8848C709.063 52.8848 710.675 53.3682 712.14 54.335C713.663 53.3682 715.274 52.8848 716.974 52.8848C718.702 52.8848 720.299 53.251 721.764 53.9834C725.221 52.958 728.429 52.4453 731.388 52.4453C734.347 52.4453 736.969 52.6064 739.254 52.9287C741.539 53.251 743.722 53.8223 745.802 54.6426C747.882 55.4336 749.83 56.5029 751.646 57.8506C753.492 59.1982 755.133 60.8828 756.568 62.9043C759.615 67.1523 761.563 72.7773 762.413 79.7793C762.589 81.5078 762.955 82.7236 763.512 83.4268C764.449 84.5693 765.724 85.4189 767.335 85.9756C765.636 86.6201 764.522 87.2793 763.995 87.9531C763.116 89.0664 762.589 90.4727 762.413 92.1719C761.446 101.898 758.18 109.398 752.613 114.672C747.252 119.77 740.294 122.318 731.739 122.318C728.312 122.318 725.235 121.791 722.511 120.736C721.192 121.498 719.449 121.879 717.281 121.879ZM725.323 114.101C726.729 115.683 728.59 116.474 730.904 116.474C733.248 116.474 735.27 116.02 736.969 115.111C738.697 114.174 740.147 112.738 741.319 110.805C743.692 106.85 744.879 100.639 744.879 92.1719C744.879 90.3262 744.586 89.0664 744 88.3926C743.209 87.4551 741.905 86.6494 740.089 85.9756C741.876 85.3604 743.033 84.7451 743.561 84.1299C744.439 83.0752 744.879 81.7422 744.879 80.1309C744.879 78.4902 744.762 76.8643 744.527 75.2529C744.293 73.6416 743.912 72.0449 743.385 70.4629C742.887 68.8809 742.242 67.3721 741.451 65.9365C740.689 64.4717 739.767 63.1826 738.683 62.0693C736.31 59.6377 733.512 58.4219 730.289 58.4219C729.293 58.4219 728.326 58.4512 727.389 58.5098C726.451 58.5391 725.763 58.8174 725.323 59.3447V114.101ZM747.164 66.0684C749.361 72.1914 750.46 77.4355 750.46 81.8008C750.46 83.2949 750.328 84.1738 750.064 84.4375C749.83 84.7012 749.566 84.9355 749.273 85.1406C748.746 85.4922 748.175 85.7705 747.56 85.9756C749.317 86.7666 750.24 87.5283 750.328 88.2607C750.387 88.583 750.416 88.9053 750.416 89.2275V90.3262C750.416 94.2812 750.006 98.1191 749.186 101.84C748.365 105.531 747.75 108.036 747.34 109.354C748.658 108.974 749.61 108.109 750.196 106.762C750.812 105.385 751.324 103.92 751.734 102.367C752.174 100.785 752.525 99.1152 752.789 97.3574C753.375 93.7539 753.668 89.9893 753.668 86.0635C753.668 79.0322 752.628 73.3633 750.548 69.0566C749.64 67.3574 748.512 66.3613 747.164 66.0684ZM713.37 109.354C714.835 108.798 715.641 106.879 715.787 103.598C715.963 100.316 716.051 95.7754 716.051 89.9746C716.051 84.1738 716.036 80.3213 716.007 78.417C716.007 76.4834 715.992 74.9307 715.963 73.7588C715.875 70.3018 715.538 68.2217 714.952 67.5186C714.396 66.7861 713.868 66.3027 713.37 66.0684C713.37 76.2637 713.194 82.0645 712.843 83.4707C712.433 84.6426 711.437 85.4775 709.854 85.9756C711.612 86.5908 712.608 87.3379 712.843 88.2168C713.194 89.623 713.37 94.7646 713.37 103.642V109.354ZM782.848 119.286C780.504 121.63 778.277 122.802 776.168 122.802C774.82 122.802 773.912 122.304 773.443 121.308C774.117 120.487 774.454 119.257 774.454 117.616V116.957C774.454 116.781 774.439 116.62 774.41 116.474C772.945 115.155 772.213 113.603 772.213 111.815C772.213 109.999 773.062 108.153 774.762 106.278C774.264 105.282 774.015 104.228 774.015 103.114C774.015 101.972 774.176 100.917 774.498 99.9502C774.85 98.9541 775.318 98.0898 775.904 97.3574C777.135 95.7461 778.336 94.9404 779.508 94.9404C780.709 94.9404 781.559 95.4092 782.057 96.3467C781.002 97.46 780.475 99.2031 780.475 101.576C780.475 103.949 780.812 106.015 781.485 107.772C782.188 109.53 783.17 111.039 784.43 112.299C787.125 115.053 790.567 116.43 794.757 116.43C797.569 116.43 799.957 115.624 801.92 114.013C804.029 112.284 805.084 109.926 805.084 106.938C805.084 104.828 804.586 103.114 803.59 101.796C802.037 99.7451 799.605 97.5771 796.295 95.292C793.746 93.5049 791.71 92.6113 790.187 92.6113C788.634 92.6113 786.92 93.2412 785.045 94.501C785.543 93.0068 785.792 91.6152 785.792 90.3262C785.792 90.0332 785.514 89.6523 784.957 89.1836L783.331 87.7334C778.204 83.0166 775.172 78.6367 774.234 74.5938C773.912 73.1875 773.751 71.4297 773.751 69.3203C773.751 67.1816 774.264 65.0283 775.289 62.8604C776.344 60.6631 777.779 58.8027 779.596 57.2793C783.375 54.0566 788.18 52.4453 794.01 52.4453C797.555 52.4453 800.807 53.0166 803.766 54.1592C805.025 54.6572 806.461 54.9062 808.072 54.9062C808.746 54.9062 809.347 54.877 809.874 54.8184C810.431 54.7305 810.914 54.4229 811.324 53.8955C811.705 53.3389 811.896 52.8408 811.896 52.4014C811.896 51.9619 811.837 51.5957 811.72 51.3027C811.925 51.2148 812.203 51.1709 812.555 51.1709C812.936 51.1709 813.346 51.3027 813.785 51.5664C814.225 51.8008 814.62 52.1377 814.972 52.5771C815.763 53.5732 816.158 54.7012 816.158 55.9609C816.158 57.1914 815.807 58.1289 815.104 58.7734C816.1 59.6523 816.598 61.0146 816.598 62.8604C816.598 64.6768 815.982 66.2002 814.752 67.4307C814.986 68.2217 815.104 68.9395 815.104 69.584C815.104 70.1992 814.986 70.7998 814.752 71.3857C814.547 71.9424 814.254 72.4258 813.873 72.8359C813.023 73.7441 812.218 74.1982 811.456 74.1982C810.255 74.1982 809.244 73.9932 808.424 73.583C808.922 72.4111 809.171 71.1514 809.171 69.8037C809.171 68.4561 808.863 67.0791 808.248 65.6729C807.662 64.2373 806.827 62.9922 805.743 61.9375C803.458 59.7695 800.47 58.6855 796.778 58.6855C794.435 58.6855 792.516 59.4033 791.021 60.8389C789.615 62.1865 788.912 63.8125 788.912 65.7168C788.912 67.1523 789.264 68.3535 789.967 69.3203C791.197 70.9902 793.146 72.7188 795.812 74.5059L797.921 75.9121C799.093 76.6445 799.884 77.0107 800.294 77.0107C800.704 77.0107 801.114 76.9668 801.524 76.8789C801.935 76.791 802.389 76.6738 802.887 76.5273C803.941 76.1758 804.967 75.6777 805.963 75.0332L805.392 77.4941C805.216 78.3145 805.128 78.915 805.128 79.2959C805.128 79.9111 805.436 80.4678 806.051 80.9658C811.529 85.7119 815.191 89.6816 817.037 92.875C818.648 95.6582 819.454 98.6611 819.454 101.884C819.454 105.106 818.927 107.875 817.872 110.189C816.817 112.504 815.279 114.555 813.258 116.342C808.805 120.326 803.019 122.318 795.899 122.318C790.89 122.318 786.539 121.308 782.848 119.286ZM779.859 66.0684C778.746 66.5371 778.189 67.7529 778.189 69.7158C778.189 73.7295 780.87 78.1387 786.231 82.9434L788.868 85.3164C789.776 86.1367 790.172 86.7666 790.055 87.2061C789.967 87.6455 789.879 87.9971 789.791 88.2607C789.732 88.5244 789.659 88.7734 789.571 89.0078C789.483 89.2422 789.425 89.418 789.396 89.5352C790.421 88.9199 791.256 88.6123 791.9 88.6123C793.189 88.6123 794.405 88.9639 795.548 89.667C801.202 93.1826 805.04 96.3174 807.062 99.0713C808.526 101.093 809.288 103.612 809.347 106.63C809.347 107.714 809.273 108.622 809.127 109.354C810.68 108.358 811.456 106.776 811.456 104.608C811.456 102.499 811.163 100.873 810.577 99.7305C810.021 98.5879 809.361 97.5771 808.6 96.6982C807.838 95.79 806.842 94.8086 805.611 93.7539C804.41 92.6992 802.916 91.5566 801.129 90.3262L794.889 86.0635C789.762 82.6943 785.865 79.1348 783.199 75.3848C780.855 72.0742 779.742 68.9688 779.859 66.0684ZM847.403 120.473C845.909 121.41 844.21 121.879 842.306 121.879C840.401 121.879 838.702 121.41 837.208 120.473C835.714 121.41 834.322 121.879 833.033 121.879C831.773 121.879 830.733 121.762 829.913 121.527C829.093 121.322 828.375 121.029 827.76 120.648C826.5 119.887 825.87 118.935 825.87 117.792C825.87 117.206 826.031 116.693 826.354 116.254C826.998 116.752 827.818 117.001 828.814 117.001C831.422 117.001 833.224 115.888 834.22 113.661V92.1719C834.22 90.8242 833.941 89.8281 833.385 89.1836C832.506 88.0996 830.997 87.0303 828.858 85.9756C830.851 85.0674 832.14 84.2617 832.726 83.5586C833.722 82.416 834.22 81.127 834.22 79.6914V61.1465C833.224 58.8906 831.422 57.7627 828.814 57.7627C827.818 57.7627 826.998 58.0117 826.354 58.5098C826.031 58.0703 825.87 57.5723 825.87 57.0156C825.87 56.4297 826.031 55.8877 826.354 55.3896C826.705 54.8916 827.174 54.4668 827.76 54.1152C829.107 53.2949 830.646 52.8848 832.374 52.8848C834.132 52.8848 835.743 53.3682 837.208 54.335C838.731 53.3682 840.431 52.8848 842.306 52.8848C844.181 52.8848 845.88 53.3682 847.403 54.335C848.868 53.3682 850.245 52.8848 851.534 52.8848C852.823 52.8848 853.878 53.002 854.698 53.2363C855.519 53.4414 856.236 53.7344 856.852 54.1152C858.111 54.877 858.741 55.8291 858.741 56.9717C858.741 57.5576 858.58 58.0703 858.258 58.5098C857.613 58.0117 856.793 57.7627 855.797 57.7627C853.189 57.7627 851.388 58.8906 850.392 61.1465V79.6914C850.392 81.127 850.699 82.1963 851.314 82.8994C852.281 84.042 853.761 85.0674 855.753 85.9756C853.614 87.0303 852.252 87.8945 851.666 88.5684C850.816 89.623 850.392 90.8242 850.392 92.1719V113.661C851.388 115.888 853.189 117.001 855.797 117.001C856.793 117.001 857.613 116.752 858.258 116.254C858.58 116.693 858.741 117.206 858.741 117.792C858.741 118.349 858.565 118.876 858.214 119.374C857.892 119.872 857.438 120.297 856.852 120.648C855.504 121.469 853.966 121.879 852.237 121.879C850.509 121.879 848.897 121.41 847.403 120.473ZM838.438 109.354C839.903 108.798 840.709 106.879 840.855 103.598C841.031 100.316 841.119 95.7754 841.119 89.9746C841.119 84.1738 841.104 80.3213 841.075 78.417C841.075 76.4834 841.061 74.9307 841.031 73.7588C840.943 70.3018 840.606 68.2217 840.021 67.5186C839.464 66.7861 838.937 66.3027 838.438 66.0684C838.438 76.2637 838.263 82.0645 837.911 83.4707C837.501 84.6426 836.505 85.4775 834.923 85.9756C836.681 86.5908 837.677 87.3379 837.911 88.2168C838.263 89.623 838.438 94.7646 838.438 103.642V109.354ZM881.812 121.879C879.879 121.879 878.165 121.41 876.671 120.473C875.177 121.41 873.785 121.879 872.496 121.879C871.236 121.879 870.196 121.762 869.376 121.527C868.556 121.322 867.838 121.029 867.223 120.648C865.963 119.887 865.333 118.935 865.333 117.792C865.333 117.206 865.494 116.693 865.816 116.254C866.461 116.752 867.281 117.001 868.277 117.001C870.885 117.001 872.687 115.888 873.683 113.661V92.1719C873.683 90.8242 873.404 89.8281 872.848 89.1836C871.969 88.0996 870.46 87.0303 868.321 85.9756C870.313 85.0674 871.603 84.2617 872.188 83.5586C873.185 82.416 873.683 81.127 873.683 79.6914V61.1465C872.687 58.8906 870.885 57.7627 868.277 57.7627C867.281 57.7627 866.461 58.0117 865.816 58.5098C865.494 58.0703 865.333 57.5723 865.333 57.0156C865.333 56.4297 865.494 55.8877 865.816 55.3896C866.168 54.8916 866.637 54.4668 867.223 54.1152C868.57 53.2949 870.108 52.8848 871.837 52.8848C873.595 52.8848 875.206 53.3682 876.671 54.335C878.194 53.3682 879.806 52.8848 881.505 52.8848C883.233 52.8848 884.83 53.251 886.295 53.9834C889.752 52.958 892.96 52.4453 895.919 52.4453C898.878 52.4453 901.5 52.6064 903.785 52.9287C906.07 53.251 908.253 53.8223 910.333 54.6426C912.413 55.4336 914.361 56.5029 916.178 57.8506C918.023 59.1982 919.664 60.8828 921.1 62.9043C924.146 67.1523 926.095 72.7773 926.944 79.7793C927.12 81.5078 927.486 82.7236 928.043 83.4268C928.98 84.5693 930.255 85.4189 931.866 85.9756C930.167 86.6201 929.054 87.2793 928.526 87.9531C927.647 89.0664 927.12 90.4727 926.944 92.1719C925.978 101.898 922.711 109.398 917.145 114.672C911.783 119.77 904.825 122.318 896.271 122.318C892.843 122.318 889.767 121.791 887.042 120.736C885.724 121.498 883.98 121.879 881.812 121.879ZM889.854 114.101C891.261 115.683 893.121 116.474 895.436 116.474C897.779 116.474 899.801 116.02 901.5 115.111C903.229 114.174 904.679 112.738 905.851 110.805C908.224 106.85 909.41 100.639 909.41 92.1719C909.41 90.3262 909.117 89.0664 908.531 88.3926C907.74 87.4551 906.437 86.6494 904.62 85.9756C906.407 85.3604 907.564 84.7451 908.092 84.1299C908.971 83.0752 909.41 81.7422 909.41 80.1309C909.41 78.4902 909.293 76.8643 909.059 75.2529C908.824 73.6416 908.443 72.0449 907.916 70.4629C907.418 68.8809 906.773 67.3721 905.982 65.9365C905.221 64.4717 904.298 63.1826 903.214 62.0693C900.841 59.6377 898.043 58.4219 894.82 58.4219C893.824 58.4219 892.857 58.4512 891.92 58.5098C890.982 58.5391 890.294 58.8174 889.854 59.3447V114.101ZM911.695 66.0684C913.893 72.1914 914.991 77.4355 914.991 81.8008C914.991 83.2949 914.859 84.1738 914.596 84.4375C914.361 84.7012 914.098 84.9355 913.805 85.1406C913.277 85.4922 912.706 85.7705 912.091 85.9756C913.849 86.7666 914.771 87.5283 914.859 88.2607C914.918 88.583 914.947 88.9053 914.947 89.2275V90.3262C914.947 94.2812 914.537 98.1191 913.717 101.84C912.896 105.531 912.281 108.036 911.871 109.354C913.189 108.974 914.142 108.109 914.728 106.762C915.343 105.385 915.855 103.92 916.266 102.367C916.705 100.785 917.057 99.1152 917.32 97.3574C917.906 93.7539 918.199 89.9893 918.199 86.0635C918.199 79.0322 917.159 73.3633 915.079 69.0566C914.171 67.3574 913.043 66.3613 911.695 66.0684ZM877.901 109.354C879.366 108.798 880.172 106.879 880.318 103.598C880.494 100.316 880.582 95.7754 880.582 89.9746C880.582 84.1738 880.567 80.3213 880.538 78.417C880.538 76.4834 880.523 74.9307 880.494 73.7588C880.406 70.3018 880.069 68.2217 879.483 67.5186C878.927 66.7861 878.399 66.3027 877.901 66.0684C877.901 76.2637 877.726 82.0645 877.374 83.4707C876.964 84.6426 875.968 85.4775 874.386 85.9756C876.144 86.5908 877.14 87.3379 877.374 88.2168C877.726 89.623 877.901 94.7646 877.901 103.642V109.354ZM951.686 121.879C949.752 121.879 948.038 121.41 946.544 120.473C945.05 121.41 943.658 121.879 942.369 121.879C941.109 121.879 940.069 121.762 939.249 121.527C938.429 121.322 937.711 121.029 937.096 120.648C935.836 119.887 935.206 118.935 935.206 117.792C935.206 117.206 935.367 116.693 935.689 116.254C936.334 116.752 937.154 117.001 938.15 117.001C940.758 117.001 942.56 115.888 943.556 113.661V92.1719C943.556 90.8242 943.277 89.8281 942.721 89.1836C941.842 88.0996 940.333 87.0303 938.194 85.9756C940.187 85.0674 941.476 84.2617 942.062 83.5586C943.058 82.416 943.556 81.127 943.556 79.6914V61.1465C942.56 58.8906 940.758 57.7627 938.15 57.7627C937.154 57.7627 936.334 58.0117 935.689 58.5098C935.367 58.0703 935.206 57.5723 935.206 57.0156C935.206 56.4297 935.367 55.8877 935.689 55.3896C936.041 54.8916 936.51 54.4668 937.096 54.1152C938.443 53.2949 939.981 52.8848 941.71 52.8848C943.468 52.8848 945.079 53.3682 946.544 54.335C948.067 53.3682 949.811 52.8848 951.773 52.8848C953.736 52.8848 955.523 53.4561 957.135 54.5986C960.24 53.4561 963.829 52.8848 967.901 52.8848C970.919 52.8848 973.497 53.1777 975.636 53.7637L979.547 54.8184C980.016 54.9355 980.47 54.9941 980.909 54.9941C981.729 54.9941 982.14 54.4082 982.14 53.2363C982.14 52.9434 982.037 52.4453 981.832 51.7422C982.652 51.5957 983.692 51.5225 984.952 51.5225C986.212 51.5225 987.281 51.9473 988.16 52.7969C989.039 53.6172 989.479 54.8184 989.479 56.4004C989.479 57.9531 989.2 59.0957 988.644 59.8281C989.435 61 989.83 62.4355 989.83 64.1348C989.83 65.8047 989.259 67.2109 988.116 68.3535C988.468 69.2324 988.644 70.0967 988.644 70.9463C988.644 71.7666 988.497 72.5283 988.204 73.2314C987.94 73.9053 987.604 74.4766 987.193 74.9453C986.373 75.7949 985.538 76.2197 984.688 76.2197C983.458 76.2197 982.345 75.9561 981.349 75.4287C981.7 74.7256 981.876 73.6855 981.876 72.3086C981.876 69.0859 981.07 66.2588 979.459 63.8271C977.262 60.4873 973.966 58.8174 969.571 58.8174C967.345 58.8174 965.323 59.3594 963.507 60.4434C961.72 61.5273 960.46 63.0801 959.728 65.1016V82.1084C960.753 82.7529 961.705 83.0752 962.584 83.0752C963.492 83.0752 964.166 83.0605 964.605 83.0312C965.074 83.002 965.543 82.9434 966.012 82.8555C967.213 82.6797 968.136 82.4453 968.78 82.1523C970.011 81.5664 970.626 80.1309 970.626 77.8457C970.626 76.5566 970.318 75.5605 969.703 74.8574C970.289 74.4473 971.021 74.2422 971.9 74.2422C973.863 74.2422 975.284 75.0332 976.163 76.6152C976.485 77.1719 976.646 77.7871 976.646 78.4609C976.646 79.1348 976.471 79.9697 976.119 80.9658C977.32 82.3428 977.921 83.9834 977.921 85.8877C977.921 87.7627 977.32 89.3887 976.119 90.7656C976.471 91.7617 976.646 92.6699 976.646 93.4902C976.646 94.2812 976.485 95.043 976.163 95.7754C975.841 96.5078 975.445 97.0938 974.977 97.5332C974.068 98.3535 973.043 98.7637 971.9 98.7637C971.08 98.7637 970.348 98.5293 969.703 98.0605C970.318 97.0352 970.626 95.834 970.626 94.457C970.626 91.7324 969.879 90.0479 968.385 89.4033C967.066 88.876 965.558 88.6123 963.858 88.6123C962.159 88.6123 960.782 88.9199 959.728 89.5352V111.508C961.427 114.496 964.708 115.99 969.571 115.99C975.079 115.99 978.829 114.291 980.821 110.893C983.136 106.996 984.293 102.821 984.293 98.3682C984.293 97.0791 984.176 96.083 983.941 95.3799C984.674 94.6475 985.436 94.2812 986.227 94.2812C987.018 94.2812 987.618 94.3984 988.028 94.6328C988.438 94.8379 988.805 95.1016 989.127 95.4238C989.83 96.2148 990.182 97.0205 990.182 97.8408L989.918 99.9941C989.918 100.551 990.064 101.005 990.357 101.356C990.943 101.972 991.236 102.558 991.236 103.114C991.236 103.642 991.061 104.286 990.709 105.048C991.383 105.429 991.983 106 992.511 106.762C993.067 107.494 993.346 108.256 993.346 109.047C993.346 110.717 992.643 112.211 991.236 113.529C991.852 114.408 992.159 115.683 992.159 117.353C992.159 118.993 991.676 120.385 990.709 121.527C989.771 122.699 988.541 123.285 987.018 123.285C986.197 123.285 985.348 123.197 984.469 123.021C984.586 122.377 984.645 121.732 984.645 121.088C984.645 119.74 984.029 119.066 982.799 119.066C981.422 119.066 980.045 119.345 978.668 119.901C975.416 121.22 971.71 121.879 967.55 121.879C963.419 121.879 959.903 121.337 957.003 120.253C955.479 121.337 953.707 121.879 951.686 121.879ZM947.774 109.354C949.239 108.798 950.045 106.879 950.191 103.598C950.367 100.316 950.455 95.7754 950.455 89.9746C950.455 84.1738 950.44 80.3213 950.411 78.417C950.411 76.4834 950.396 74.9307 950.367 73.7588C950.279 70.3018 949.942 68.2217 949.356 67.5186C948.8 66.7861 948.272 66.3027 947.774 66.0684C947.774 76.2637 947.599 82.0645 947.247 83.4707C946.837 84.6426 945.841 85.4775 944.259 85.9756C946.017 86.5908 947.013 87.3379 947.247 88.2168C947.599 89.623 947.774 94.7646 947.774 103.642V109.354ZM958.849 108.915C958.849 109.003 958.863 109.076 958.893 109.135L958.849 108.915Z" fill="#FAEADC"/>
</svg>
