<svg width="616" height="73" viewBox="0 0 616 73" fill="none" xmlns="http://www.w3.org/2000/svg">
<path d="M16.7754 70.8789C14.8418 70.8789 13.1279 70.4102 11.6338 69.4727C10.1396 70.4102 8.74805 70.8789 7.45898 70.8789C6.19922 70.8789 5.15918 70.7617 4.33887 70.5273C3.51855 70.3223 2.80078 70.0293 2.18555 69.6484C0.925781 68.8867 0.295898 67.9346 0.295898 66.792C0.295898 66.2061 0.457031 65.6934 0.779297 65.2539C1.42383 65.752 2.24414 66.001 3.24023 66.001C5.84766 66.001 7.64941 64.8877 8.64551 62.6611V41.1719C8.64551 39.8535 8.36719 38.8428 7.81055 38.1396C6.93164 36.9971 5.42285 35.9131 3.28418 34.8877C5.24707 33.9795 6.53613 33.1885 7.15137 32.5146C8.14746 31.3721 8.64551 30.0977 8.64551 28.6914V10.1465C7.64941 7.89063 5.84766 6.7627 3.24023 6.7627C2.24414 6.7627 1.42383 7.01172 0.779297 7.50977C0.457031 7.07031 0.295898 6.57227 0.295898 6.01562C0.295898 5.42969 0.457031 4.8877 0.779297 4.38965C1.13086 3.8916 1.59961 3.4668 2.18555 3.11523C3.5332 2.29492 5.07129 1.88477 6.7998 1.88477C8.55762 1.88477 10.1689 2.36816 11.6338 3.33496C13.1572 2.36816 14.8564 1.88477 16.7314 1.88477C18.7822 1.88477 20.5693 2.42676 22.0928 3.51074C25.3447 2.13379 28.582 1.44531 31.8047 1.44531C35.0273 1.44531 37.957 1.76758 40.5938 2.41211C43.2598 3.02734 45.6621 3.90625 47.8008 5.04883C52.459 7.50977 55.3594 10.7031 56.502 14.6289C57.1465 16.7969 58.5381 18.4082 60.6768 19.4629C58.3037 21.1035 56.8389 22.9785 56.2822 25.0879C55.0518 29.7168 52.5615 32.7344 48.8115 34.1406C54.3193 35.6641 57.9082 39.2676 59.5781 44.9512C60.1641 46.9727 61.5557 48.6279 63.7529 49.917C61.4971 51.1768 59.9883 53.0811 59.2266 55.6299C58.4648 58.1787 57.1172 60.4785 55.1836 62.5293C53.2793 64.5508 51.0527 66.2207 48.5039 67.5391C43.582 70.0586 38.0303 71.3184 31.8486 71.3184C28.1572 71.3184 24.8613 70.6592 21.9609 69.3408C20.4375 70.3662 18.709 70.8789 16.7754 70.8789ZM33.0352 32.0312C35.6133 32.0312 37.4443 31.416 38.5283 30.1855C39.6709 28.9258 40.2422 26.7578 40.2422 23.6816V13.5303C40.2422 11.7432 39.3047 10.2344 37.4297 9.00391C35.7891 7.91992 34.2656 7.37793 32.8594 7.37793C31.4824 7.37793 30.3398 7.55371 29.4316 7.90527C28.5527 8.22754 27.7617 8.68164 27.0586 9.26758C25.5645 10.498 24.8174 11.9775 24.8174 13.7061V32.0312H33.0352ZM42.7471 8.38867C43.7432 10.6152 44.2412 13.8672 44.2412 18.1445C44.2412 24.4434 43.8311 28.5303 43.0107 30.4053C44.2412 30.1709 45.2812 28.9844 46.1309 26.8457C46.4531 26.0547 46.6875 25.2197 46.834 24.3408C47.0098 23.4619 47.1416 22.7881 47.2295 22.3193C47.3467 21.8213 47.5078 21.3965 47.7129 21.0449C48.1523 20.3125 48.9434 19.7559 50.0859 19.375C48.9141 18.9941 48.1816 18.584 47.8887 18.1445C47.5078 17.6465 47.2002 16.7383 46.9658 15.4199C46.7314 14.1016 46.4531 13.0322 46.1309 12.2119C45.8086 11.3623 45.457 10.6738 45.0762 10.1465C44.3438 9.0918 43.5674 8.50586 42.7471 8.38867ZM12.8643 58.3545C14.3291 57.7979 15.1348 55.8789 15.2812 52.5977C15.457 49.3164 15.5449 44.7754 15.5449 38.9746C15.5449 33.1738 15.5303 29.3213 15.501 27.417C15.501 25.4834 15.4863 23.9307 15.457 22.7588C15.3691 19.3018 15.0322 17.2217 14.4463 16.5186C13.8896 15.7861 13.3623 15.3027 12.8643 15.0684C12.8643 25.2637 12.6885 31.0645 12.3369 32.4707C11.9268 33.6426 10.9307 34.4775 9.34863 34.9756C11.1064 35.5908 12.1025 36.3379 12.3369 37.2168C12.6885 38.623 12.8643 43.7646 12.8643 52.6416V58.3545ZM24.8174 58.5303C24.8174 60.5811 25.5938 62.2656 27.1465 63.584C28.6406 64.8145 30.4277 65.4297 32.5078 65.4297C34.5293 65.4297 36.2285 64.9902 37.6055 64.1113C40.2422 62.3828 41.5605 60.4053 41.5605 58.1787V45.3027C41.5605 42.6367 40.6963 40.6299 38.9678 39.2822C37.5029 38.1396 35.584 37.5684 33.2109 37.5684H24.8174V58.5303ZM44.5049 38.9307C45.208 40.5127 45.5596 44.1748 45.5596 49.917C45.5596 57.1826 45.2959 61.4453 44.7686 62.7051C45.3838 62.5879 46.0137 61.8408 46.6582 60.4639C47.3027 59.0869 47.7568 57.666 48.0205 56.2012C48.2842 54.7363 48.46 53.7402 48.5479 53.2129C48.665 52.6855 48.8262 52.2168 49.0312 51.8066C49.5 50.9277 50.291 50.2979 51.4043 49.917C49.6465 49.3604 48.6064 48.2471 48.2842 46.5771C47.9912 44.9072 47.6982 43.6182 47.4053 42.71C47.1123 41.8018 46.8047 41.084 46.4824 40.5566C45.9258 39.6191 45.2666 39.0771 44.5049 38.9307ZM88.7139 69.4727C87.2197 70.4102 85.5205 70.8789 83.6162 70.8789C81.7119 70.8789 80.0127 70.4102 78.5186 69.4727C77.0244 70.4102 75.6328 70.8789 74.3438 70.8789C73.084 70.8789 72.0439 70.7617 71.2236 70.5273C70.4033 70.3223 69.6855 70.0293 69.0703 69.6484C67.8105 68.8867 67.1807 67.9346 67.1807 66.792C67.1807 66.2061 67.3418 65.6934 67.6641 65.2539C68.3086 65.752 69.1289 66.001 70.125 66.001C72.7324 66.001 74.5342 64.8877 75.5303 62.6611V41.1719C75.5303 39.8242 75.252 38.8281 74.6953 38.1836C73.8164 37.0996 72.3076 36.0303 70.1689 34.9756C72.1611 34.0674 73.4502 33.2617 74.0361 32.5586C75.0322 31.416 75.5303 30.127 75.5303 28.6914V10.1465C74.5342 7.89063 72.7324 6.7627 70.125 6.7627C69.1289 6.7627 68.3086 7.01172 67.6641 7.50977C67.3418 7.07031 67.1807 6.57227 67.1807 6.01562C67.1807 5.42969 67.3418 4.8877 67.6641 4.38965C68.0156 3.8916 68.4844 3.4668 69.0703 3.11523C70.418 2.29492 71.9561 1.88477 73.6846 1.88477C75.4424 1.88477 77.0537 2.36816 78.5186 3.33496C80.042 2.36816 81.7412 1.88477 83.6162 1.88477C85.4912 1.88477 87.1904 2.36816 88.7139 3.33496C92.0244 2.0752 95.6865 1.44531 99.7002 1.44531C103.743 1.44531 107.127 1.81152 109.852 2.54395C112.576 3.27637 114.92 4.31641 116.883 5.66406C120.838 8.38867 123.299 12.1826 124.266 17.0459C124.646 19.2139 126.038 20.8545 128.44 21.9678C126.155 23.2568 124.661 25.3076 123.958 28.1201C122.522 33.9209 118.934 37.5391 113.191 38.9746C116.15 39.7656 118.567 41.3916 120.442 43.8525C122.376 46.4014 123.343 49.4043 123.343 52.8613V57.2559C123.343 61.4746 124.705 64.1992 127.43 65.4297C128.25 65.8105 129.144 66.001 130.11 66.001C131.077 66.001 131.883 65.752 132.527 65.2539C132.85 65.6934 133.011 66.2061 133.011 66.792C133.011 67.3486 132.864 67.876 132.571 68.374C132.278 68.8721 131.883 69.2969 131.385 69.6484C130.33 70.4688 129.1 70.8789 127.693 70.8789C126.287 70.8789 124.91 70.498 123.562 69.7363C121.102 71.084 118.802 71.2158 116.663 70.1318C115.843 70.6299 114.979 70.8789 114.07 70.8789C113.162 70.8789 112.283 70.6738 111.434 70.2637C110.613 69.8535 109.881 69.1797 109.236 68.2422C107.859 66.2207 107.171 63.1152 107.171 58.9258V55.6738C107.171 48.9062 105.237 44.5117 101.37 42.4902C100.081 41.8164 98.5723 41.4795 96.8438 41.4795H91.7021V62.8809C92.4932 64.9609 94.002 66.001 96.2285 66.001C97.2246 66.001 98.0449 65.752 98.6895 65.2539C99.0117 65.6934 99.1729 66.3379 99.1729 67.1875C99.1729 68.0371 98.7041 68.8721 97.7666 69.6924C96.8584 70.4834 95.4814 70.8789 93.6357 70.8789C91.79 70.8789 90.1494 70.4102 88.7139 69.4727ZM100.14 7.29004C94.5146 7.29004 91.7021 9.47266 91.7021 13.8379V31.8115C91.7021 33.335 92.3027 34.3604 93.5039 34.8877C94.6465 35.3857 96.3311 35.6348 98.5576 35.6348C100.813 35.6348 102.381 35.5176 103.26 35.2832C104.168 35.0195 104.944 34.5801 105.589 33.9648C106.907 32.7051 107.566 30.5957 107.566 27.6367V14.8047C107.566 11.1426 106.043 8.79883 102.996 7.77344C102.088 7.45117 101.136 7.29004 100.14 7.29004ZM110.511 10.1025C111.419 12.1533 111.873 15.4346 111.873 19.9463C111.873 27.71 111.507 32.3535 110.774 33.877C112.386 33.5547 113.543 31.4014 114.246 27.417L114.598 25.6152C114.92 23.7109 115.857 22.4951 117.41 21.9678C116.268 21.5869 115.535 21.1328 115.213 20.6055C114.861 19.9902 114.539 18.9502 114.246 17.4854C113.982 15.9912 113.704 14.79 113.411 13.8818C113.118 12.9736 112.811 12.2559 112.488 11.7285C111.932 10.791 111.272 10.249 110.511 10.1025ZM79.749 58.3545C81.2139 57.7979 82.0195 55.8789 82.166 52.5977C82.3418 49.3164 82.4297 44.7754 82.4297 38.9746C82.4297 33.1738 82.415 29.3213 82.3857 27.417C82.3857 25.4834 82.3711 23.9307 82.3418 22.7588C82.2539 19.3018 81.917 17.2217 81.3311 16.5186C80.7744 15.7861 80.2471 15.3027 79.749 15.0684C79.749 25.2637 79.5732 31.0645 79.2217 32.4707C78.8115 33.6426 77.8154 34.4775 76.2334 34.9756C77.9912 35.5908 78.9873 36.3379 79.2217 37.2168C79.5732 38.623 79.749 43.7646 79.749 52.6416V58.3545ZM110.071 46.3135C111.243 47.6318 111.829 49.2432 111.829 51.1475V56.9482C111.829 61.8115 112.796 64.4043 114.729 64.7266C115.257 64.8145 115.77 64.7998 116.268 64.6826C115.213 63.042 114.686 61.3135 114.686 59.4971V53.3447C114.686 51.0303 114.363 49.3896 113.719 48.4229C112.605 46.7822 111.39 46.0791 110.071 46.3135ZM147.557 63.4961C145.125 60.9766 143.147 57.9443 141.624 54.3994C140.13 50.8545 139.207 47.5 138.855 44.3359C138.504 41.1719 137.962 38.9893 137.229 37.7881C136.526 36.5576 135.516 35.6201 134.197 34.9756C136.746 33.7744 138.24 31.3135 138.68 27.5928C139.148 23.8428 140.188 20.3418 141.8 17.0898C143.411 13.8379 145.462 11.0547 147.952 8.74023C153.196 3.87695 159.51 1.44531 166.893 1.44531C174.48 1.44531 180.765 3.70117 185.745 8.21289C190.931 12.9004 193.978 19.4629 194.886 27.9004C195.267 31.416 196.761 33.7744 199.368 34.9756C196.819 36.2354 195.311 38.9014 194.842 42.9736C194.373 47.0459 193.45 50.8545 192.073 54.3994C190.696 57.9443 188.851 60.9766 186.536 63.4961C181.702 68.7109 175.169 71.3184 166.937 71.3184C159.056 71.3184 152.596 68.7109 147.557 63.4961ZM161.927 34.9756C158.704 36.5283 157.093 39.0625 157.093 42.5781V55.6299C157.093 60.4053 159.07 63.4668 163.025 64.8145C164.197 65.2246 165.472 65.4297 166.849 65.4297C168.226 65.4297 169.485 65.2246 170.628 64.8145C171.8 64.4043 172.811 63.7891 173.66 62.9688C175.418 61.2695 176.297 58.8232 176.297 55.6299V42.5781C176.297 39.0625 174.715 36.5283 171.551 34.9756C174.715 33.5107 176.297 31.1523 176.297 27.9004V17.3975C176.297 14.1455 175.345 11.6113 173.44 9.79492C171.653 8.125 169.441 7.29004 166.805 7.29004C162.322 7.29004 159.334 9.16504 157.84 12.915C157.342 14.1748 157.093 15.6689 157.093 17.3975V27.9004C157.093 31.2109 158.704 33.5693 161.927 34.9756ZM180.34 15.0684C181.16 17.5293 181.57 21.7627 181.57 27.7686C181.57 31.167 181.424 33.0273 181.131 33.3496C180.838 33.6719 180.545 33.9355 180.252 34.1406C179.725 34.4922 179.153 34.7705 178.538 34.9756C180.296 35.7666 181.219 36.5283 181.307 37.2607C181.6 40.1318 181.746 42.6221 181.746 44.7314C181.746 46.8115 181.717 48.4961 181.658 49.7852C181.6 51.0449 181.512 52.2168 181.395 53.3008C181.16 55.6152 180.867 57.2998 180.516 58.3545C182.801 57.6514 184.075 54.2676 184.339 48.2031C184.485 44.8047 184.559 41.0254 184.559 36.8652C184.559 32.6758 184.515 29.541 184.427 27.4609C184.339 25.3516 184.207 23.623 184.031 22.2754C183.68 19.1699 182.947 17.0166 181.834 15.8154C181.512 15.4639 181.014 15.2148 180.34 15.0684ZM148.655 58.3545C149.095 58.1787 149.314 57.8711 149.314 57.4316C149.314 56.7871 149.007 55.7764 148.392 54.3994C146.839 50.8545 146.062 44.3799 146.062 34.9756C146.062 28.1201 146.883 22.29 148.523 17.4854C148.729 16.7529 148.831 16.1963 148.831 15.8154C148.831 15.4346 148.641 15.1855 148.26 15.0684C146.883 16.7969 145.901 18.5107 145.315 20.21C144.231 23.3154 143.367 27.5195 142.723 32.8223C142.635 33.584 141.771 34.3018 140.13 34.9756C141.771 35.708 142.635 36.4551 142.723 37.2168C143.777 46.2988 145.125 52.3633 146.766 55.4102C147.322 56.4941 147.952 57.4756 148.655 58.3545ZM206.663 69.6924C205.579 70.4834 204.334 70.8789 202.928 70.8789C201.551 70.8789 200.452 70.5273 199.632 69.8242C198.782 69.0918 198.357 68.2568 198.357 67.3193C198.357 66.3818 198.504 65.6934 198.797 65.2539C199.646 65.752 200.687 66.001 201.917 66.001C203.177 66.001 204.114 65.8398 204.729 65.5176C205.374 65.166 205.989 64.6973 206.575 64.1113L212.815 45.6104L213.694 42.5781C213.958 41.6699 214.09 40.835 214.09 40.0732C214.09 37.4072 212.83 35.708 210.311 34.9756C212.625 34.0967 214.251 33.1445 215.188 32.1191C216.653 30.5078 217.811 28.3838 218.66 25.7471L223.494 9.53125C222.557 8.27148 221.443 7.6416 220.154 7.6416C218.865 7.6416 217.664 7.91992 216.551 8.47656C216.258 7.94922 216.111 7.36328 216.111 6.71875C216.111 6.04492 216.243 5.41504 216.507 4.8291C216.8 4.24316 217.195 3.73047 217.693 3.29102C218.807 2.35352 220.389 1.88477 222.439 1.88477C224.49 1.88477 226.233 2.5 227.669 3.73047C229.134 2.5 230.95 1.88477 233.118 1.88477C235.315 1.88477 237.059 2.4707 238.348 3.64258C240.223 2.4707 242.127 1.88477 244.061 1.88477C245.994 1.88477 247.488 2.25098 248.543 2.9834C249.627 3.71582 250.169 4.71191 250.169 5.97168C250.169 6.55762 249.993 7.07031 249.642 7.50977C248.968 7.01172 248.177 6.7627 247.269 6.7627C245.306 6.7627 244.031 8.0957 243.445 10.7617L249.07 28.7354C249.773 30.9912 251.531 32.749 254.344 34.0088C255.135 34.3604 255.94 34.6826 256.761 34.9756C253.831 35.9424 252.366 37.3926 252.366 39.3262C252.366 40.0586 252.483 40.7031 252.718 41.2598L261.111 63.7598C262.4 65.1074 263.704 65.7812 265.022 65.7812C266.341 65.7812 267.366 65.5322 268.099 65.0342C268.421 65.2686 268.582 65.708 268.582 66.3525C268.582 66.9971 268.479 67.5977 268.274 68.1543C268.069 68.6816 267.747 69.1504 267.308 69.5605C266.37 70.4395 264.993 70.8789 263.177 70.8789C261.36 70.8789 259.778 70.3809 258.431 69.3848C256.907 70.3809 255.179 70.8789 253.245 70.8789C251.341 70.8789 249.7 70.3955 248.323 69.4287C247.005 70.3955 245.452 70.8789 243.665 70.8789C241.878 70.8789 240.398 70.5127 239.227 69.7803C238.055 69.0186 237.439 67.9492 237.381 66.5723C237.381 65.752 237.542 65.2393 237.864 65.0342C238.655 65.5322 239.461 65.7812 240.281 65.7812C242.01 65.7812 243.226 65.4297 243.929 64.7266L240.589 53.5205H216.814L213.914 63.2324C215.115 65.0781 216.565 66.001 218.265 66.001C219.993 66.001 221.282 65.752 222.132 65.2539C222.454 65.7812 222.615 66.5137 222.615 67.4512C222.615 68.3594 222.161 69.165 221.253 69.8682C220.345 70.542 219.173 70.8789 217.737 70.8789C216.302 70.8789 214.983 70.5127 213.782 69.7803C212.728 70.5127 211.512 70.8789 210.135 70.8789C208.787 70.8789 207.63 70.4834 206.663 69.6924ZM238.787 47.5879L228.592 13.7061L218.572 47.5879H238.787ZM247.181 58.3545C247.708 58.3545 247.972 57.7686 247.972 56.5967C247.972 54.5459 247.664 52.5537 247.049 50.6201L245.379 45.4785C244.207 41.6113 243.621 39.1797 243.621 38.1836C243.592 36.543 244.31 35.459 245.774 34.9316C243.753 34.5215 242.522 33.8916 242.083 33.042C241.878 32.6904 241.702 32.4121 241.556 32.207C241.438 32.002 241.307 31.7676 241.16 31.5039C241.043 31.2109 240.896 30.8447 240.721 30.4053C240.545 29.9658 240.311 29.3359 240.018 28.5156L237.293 20.2979C236.648 18.2471 235.696 16.6943 234.437 15.6396C234.056 15.3174 233.704 15.127 233.382 15.0684C235.345 22.1582 236.634 26.6992 237.249 28.6914C241.497 41.7578 244.046 49.5068 244.896 51.9385L247.181 58.3545ZM260.145 62.3096L260.232 62.5732L260.145 62.3096ZM285.281 70.8789C283.348 70.8789 281.634 70.4102 280.14 69.4727C278.646 70.4102 277.254 70.8789 275.965 70.8789C274.705 70.8789 273.665 70.7617 272.845 70.5273C272.024 70.3223 271.307 70.0293 270.691 69.6484C269.432 68.8867 268.802 67.9346 268.802 66.792C268.802 66.2061 268.963 65.6934 269.285 65.2539C269.93 65.752 270.75 66.001 271.746 66.001C274.354 66.001 276.155 64.8877 277.151 62.6611V41.1719C277.151 39.8242 276.873 38.8281 276.316 38.1836C275.438 37.0996 273.929 36.0303 271.79 34.9756C273.782 34.0674 275.071 33.2617 275.657 32.5586C276.653 31.416 277.151 30.127 277.151 28.6914V10.1465C276.155 7.89063 274.354 6.7627 271.746 6.7627C270.75 6.7627 269.93 7.01172 269.285 7.50977C268.963 7.07031 268.802 6.57227 268.802 6.01562C268.802 5.42969 268.963 4.8877 269.285 4.38965C269.637 3.8916 270.105 3.4668 270.691 3.11523C272.039 2.29492 273.577 1.88477 275.306 1.88477C277.063 1.88477 278.675 2.36816 280.14 3.33496C281.663 2.36816 283.274 1.88477 284.974 1.88477C286.702 1.88477 288.299 2.25098 289.764 2.9834C293.221 1.95801 296.429 1.44531 299.388 1.44531C302.347 1.44531 304.969 1.60645 307.254 1.92871C309.539 2.25098 311.722 2.82227 313.802 3.64258C315.882 4.43359 317.83 5.50293 319.646 6.85059C321.492 8.19824 323.133 9.88281 324.568 11.9043C327.615 16.1523 329.563 21.7773 330.413 28.7793C330.589 30.5078 330.955 31.7236 331.512 32.4268C332.449 33.5693 333.724 34.4189 335.335 34.9756C333.636 35.6201 332.522 36.2793 331.995 36.9531C331.116 38.0664 330.589 39.4727 330.413 41.1719C329.446 50.8984 326.18 58.3984 320.613 63.6719C315.252 68.7695 308.294 71.3184 299.739 71.3184C296.312 71.3184 293.235 70.791 290.511 69.7363C289.192 70.498 287.449 70.8789 285.281 70.8789ZM293.323 63.1006C294.729 64.6826 296.59 65.4736 298.904 65.4736C301.248 65.4736 303.27 65.0195 304.969 64.1113C306.697 63.1738 308.147 61.7383 309.319 59.8047C311.692 55.8496 312.879 49.6387 312.879 41.1719C312.879 39.3262 312.586 38.0664 312 37.3926C311.209 36.4551 309.905 35.6494 308.089 34.9756C309.876 34.3604 311.033 33.7451 311.561 33.1299C312.439 32.0752 312.879 30.7422 312.879 29.1309C312.879 27.4902 312.762 25.8643 312.527 24.2529C312.293 22.6416 311.912 21.0449 311.385 19.4629C310.887 17.8809 310.242 16.3721 309.451 14.9365C308.689 13.4717 307.767 12.1826 306.683 11.0693C304.31 8.6377 301.512 7.42188 298.289 7.42188C297.293 7.42188 296.326 7.45117 295.389 7.50977C294.451 7.53906 293.763 7.81738 293.323 8.34473V63.1006ZM315.164 15.0684C317.361 21.1914 318.46 26.4355 318.46 30.8008C318.46 32.2949 318.328 33.1738 318.064 33.4375C317.83 33.7012 317.566 33.9355 317.273 34.1406C316.746 34.4922 316.175 34.7705 315.56 34.9756C317.317 35.7666 318.24 36.5283 318.328 37.2607C318.387 37.583 318.416 37.9053 318.416 38.2275V39.3262C318.416 43.2812 318.006 47.1191 317.186 50.8398C316.365 54.5312 315.75 57.0361 315.34 58.3545C316.658 57.9736 317.61 57.1094 318.196 55.7617C318.812 54.3848 319.324 52.9199 319.734 51.3672C320.174 49.7852 320.525 48.1152 320.789 46.3574C321.375 42.7539 321.668 38.9893 321.668 35.0635C321.668 28.0322 320.628 22.3633 318.548 18.0566C317.64 16.3574 316.512 15.3613 315.164 15.0684ZM281.37 58.3545C282.835 57.7979 283.641 55.8789 283.787 52.5977C283.963 49.3164 284.051 44.7754 284.051 38.9746C284.051 33.1738 284.036 29.3213 284.007 27.417C284.007 25.4834 283.992 23.9307 283.963 22.7588C283.875 19.3018 283.538 17.2217 282.952 16.5186C282.396 15.7861 281.868 15.3027 281.37 15.0684C281.37 25.2637 281.194 31.0645 280.843 32.4707C280.433 33.6426 279.437 34.4775 277.854 34.9756C279.612 35.5908 280.608 36.3379 280.843 37.2168C281.194 38.623 281.37 43.7646 281.37 52.6416V58.3545ZM350.848 68.2861C348.504 70.6299 346.277 71.8018 344.168 71.8018C342.82 71.8018 341.912 71.3037 341.443 70.3076C342.117 69.4873 342.454 68.2568 342.454 66.6162V65.957C342.454 65.7812 342.439 65.6201 342.41 65.4736C340.945 64.1553 340.213 62.6025 340.213 60.8154C340.213 58.999 341.062 57.1533 342.762 55.2783C342.264 54.2822 342.015 53.2275 342.015 52.1143C342.015 50.9717 342.176 49.917 342.498 48.9502C342.85 47.9541 343.318 47.0898 343.904 46.3574C345.135 44.7461 346.336 43.9404 347.508 43.9404C348.709 43.9404 349.559 44.4092 350.057 45.3467C349.002 46.46 348.475 48.2031 348.475 50.5762C348.475 52.9492 348.812 55.0146 349.485 56.7725C350.188 58.5303 351.17 60.0391 352.43 61.2988C355.125 64.0527 358.567 65.4297 362.757 65.4297C365.569 65.4297 367.957 64.624 369.92 63.0127C372.029 61.2842 373.084 58.9258 373.084 55.9375C373.084 53.8281 372.586 52.1143 371.59 50.7959C370.037 48.7451 367.605 46.5771 364.295 44.292C361.746 42.5049 359.71 41.6113 358.187 41.6113C356.634 41.6113 354.92 42.2412 353.045 43.501C353.543 42.0068 353.792 40.6152 353.792 39.3262C353.792 39.0332 353.514 38.6523 352.957 38.1836L351.331 36.7334C346.204 32.0166 343.172 27.6367 342.234 23.5938C341.912 22.1875 341.751 20.4297 341.751 18.3203C341.751 16.1816 342.264 14.0283 343.289 11.8604C344.344 9.66309 345.779 7.80273 347.596 6.2793C351.375 3.05664 356.18 1.44531 362.01 1.44531C365.555 1.44531 368.807 2.0166 371.766 3.15918C373.025 3.65723 374.461 3.90625 376.072 3.90625C376.746 3.90625 377.347 3.87695 377.874 3.81836C378.431 3.73047 378.914 3.42285 379.324 2.89551C379.705 2.33887 379.896 1.84082 379.896 1.40137C379.896 0.961914 379.837 0.595703 379.72 0.302734C379.925 0.214844 380.203 0.170898 380.555 0.170898C380.936 0.170898 381.346 0.302734 381.785 0.566406C382.225 0.800781 382.62 1.1377 382.972 1.57715C383.763 2.57324 384.158 3.70117 384.158 4.96094C384.158 6.19141 383.807 7.12891 383.104 7.77344C384.1 8.65234 384.598 10.0146 384.598 11.8604C384.598 13.6768 383.982 15.2002 382.752 16.4307C382.986 17.2217 383.104 17.9395 383.104 18.584C383.104 19.1992 382.986 19.7998 382.752 20.3857C382.547 20.9424 382.254 21.4258 381.873 21.8359C381.023 22.7441 380.218 23.1982 379.456 23.1982C378.255 23.1982 377.244 22.9932 376.424 22.583C376.922 21.4111 377.171 20.1514 377.171 18.8037C377.171 17.4561 376.863 16.0791 376.248 14.6729C375.662 13.2373 374.827 11.9922 373.743 10.9375C371.458 8.76953 368.47 7.68555 364.778 7.68555C362.435 7.68555 360.516 8.40332 359.021 9.83887C357.615 11.1865 356.912 12.8125 356.912 14.7168C356.912 16.1523 357.264 17.3535 357.967 18.3203C359.197 19.9902 361.146 21.7188 363.812 23.5059L365.921 24.9121C367.093 25.6445 367.884 26.0107 368.294 26.0107C368.704 26.0107 369.114 25.9668 369.524 25.8789C369.935 25.791 370.389 25.6738 370.887 25.5273C371.941 25.1758 372.967 24.6777 373.963 24.0332L373.392 26.4941C373.216 27.3145 373.128 27.915 373.128 28.2959C373.128 28.9111 373.436 29.4678 374.051 29.9658C379.529 34.7119 383.191 38.6816 385.037 41.875C386.648 44.6582 387.454 47.6611 387.454 50.8838C387.454 54.1064 386.927 56.875 385.872 59.1895C384.817 61.5039 383.279 63.5547 381.258 65.3418C376.805 69.3262 371.019 71.3184 363.899 71.3184C358.89 71.3184 354.539 70.3076 350.848 68.2861ZM347.859 15.0684C346.746 15.5371 346.189 16.7529 346.189 18.7158C346.189 22.7295 348.87 27.1387 354.231 31.9434L356.868 34.3164C357.776 35.1367 358.172 35.7666 358.055 36.2061C357.967 36.6455 357.879 36.9971 357.791 37.2607C357.732 37.5244 357.659 37.7734 357.571 38.0078C357.483 38.2422 357.425 38.418 357.396 38.5352C358.421 37.9199 359.256 37.6123 359.9 37.6123C361.189 37.6123 362.405 37.9639 363.548 38.667C369.202 42.1826 373.04 45.3174 375.062 48.0713C376.526 50.0928 377.288 52.6123 377.347 55.6299C377.347 56.7139 377.273 57.6221 377.127 58.3545C378.68 57.3584 379.456 55.7764 379.456 53.6084C379.456 51.499 379.163 49.873 378.577 48.7305C378.021 47.5879 377.361 46.5771 376.6 45.6982C375.838 44.79 374.842 43.8086 373.611 42.7539C372.41 41.6992 370.916 40.5566 369.129 39.3262L362.889 35.0635C357.762 31.6943 353.865 28.1348 351.199 24.3848C348.855 21.0742 347.742 17.9688 347.859 15.0684ZM415.403 69.4727C413.909 70.4102 412.21 70.8789 410.306 70.8789C408.401 70.8789 406.702 70.4102 405.208 69.4727C403.714 70.4102 402.322 70.8789 401.033 70.8789C399.773 70.8789 398.733 70.7617 397.913 70.5273C397.093 70.3223 396.375 70.0293 395.76 69.6484C394.5 68.8867 393.87 67.9346 393.87 66.792C393.87 66.2061 394.031 65.6934 394.354 65.2539C394.998 65.752 395.818 66.001 396.814 66.001C399.422 66.001 401.224 64.8877 402.22 62.6611V41.1719C402.22 39.8242 401.941 38.8281 401.385 38.1836C400.506 37.0996 398.997 36.0303 396.858 34.9756C398.851 34.0674 400.14 33.2617 400.726 32.5586C401.722 31.416 402.22 30.127 402.22 28.6914V10.1465C401.224 7.89063 399.422 6.7627 396.814 6.7627C395.818 6.7627 394.998 7.01172 394.354 7.50977C394.031 7.07031 393.87 6.57227 393.87 6.01562C393.87 5.42969 394.031 4.8877 394.354 4.38965C394.705 3.8916 395.174 3.4668 395.76 3.11523C397.107 2.29492 398.646 1.88477 400.374 1.88477C402.132 1.88477 403.743 2.36816 405.208 3.33496C406.731 2.36816 408.431 1.88477 410.306 1.88477C412.181 1.88477 413.88 2.36816 415.403 3.33496C416.868 2.36816 418.245 1.88477 419.534 1.88477C420.823 1.88477 421.878 2.00195 422.698 2.23633C423.519 2.44141 424.236 2.73437 424.852 3.11523C426.111 3.87695 426.741 4.8291 426.741 5.97168C426.741 6.55762 426.58 7.07031 426.258 7.50977C425.613 7.01172 424.793 6.7627 423.797 6.7627C421.189 6.7627 419.388 7.89063 418.392 10.1465V28.6914C418.392 30.127 418.699 31.1963 419.314 31.8994C420.281 33.042 421.761 34.0674 423.753 34.9756C421.614 36.0303 420.252 36.8945 419.666 37.5684C418.816 38.623 418.392 39.8242 418.392 41.1719V62.6611C419.388 64.8877 421.189 66.001 423.797 66.001C424.793 66.001 425.613 65.752 426.258 65.2539C426.58 65.6934 426.741 66.2061 426.741 66.792C426.741 67.3486 426.565 67.876 426.214 68.374C425.892 68.8721 425.438 69.2969 424.852 69.6484C423.504 70.4688 421.966 70.8789 420.237 70.8789C418.509 70.8789 416.897 70.4102 415.403 69.4727ZM406.438 58.3545C407.903 57.7979 408.709 55.8789 408.855 52.5977C409.031 49.3164 409.119 44.7754 409.119 38.9746C409.119 33.1738 409.104 29.3213 409.075 27.417C409.075 25.4834 409.061 23.9307 409.031 22.7588C408.943 19.3018 408.606 17.2217 408.021 16.5186C407.464 15.7861 406.937 15.3027 406.438 15.0684C406.438 25.2637 406.263 31.0645 405.911 32.4707C405.501 33.6426 404.505 34.4775 402.923 34.9756C404.681 35.5908 405.677 36.3379 405.911 37.2168C406.263 38.623 406.438 43.7646 406.438 52.6416V58.3545ZM449.812 70.8789C447.879 70.8789 446.165 70.4102 444.671 69.4727C443.177 70.4102 441.785 70.8789 440.496 70.8789C439.236 70.8789 438.196 70.7617 437.376 70.5273C436.556 70.3223 435.838 70.0293 435.223 69.6484C433.963 68.8867 433.333 67.9346 433.333 66.792C433.333 66.2061 433.494 65.6934 433.816 65.2539C434.461 65.752 435.281 66.001 436.277 66.001C438.885 66.001 440.687 64.8877 441.683 62.6611V41.1719C441.683 39.8242 441.404 38.8281 440.848 38.1836C439.969 37.0996 438.46 36.0303 436.321 34.9756C438.313 34.0674 439.603 33.2617 440.188 32.5586C441.185 31.416 441.683 30.127 441.683 28.6914V10.1465C440.687 7.89063 438.885 6.7627 436.277 6.7627C435.281 6.7627 434.461 7.01172 433.816 7.50977C433.494 7.07031 433.333 6.57227 433.333 6.01562C433.333 5.42969 433.494 4.8877 433.816 4.38965C434.168 3.8916 434.637 3.4668 435.223 3.11523C436.57 2.29492 438.108 1.88477 439.837 1.88477C441.595 1.88477 443.206 2.36816 444.671 3.33496C446.194 2.36816 447.806 1.88477 449.505 1.88477C451.233 1.88477 452.83 2.25098 454.295 2.9834C457.752 1.95801 460.96 1.44531 463.919 1.44531C466.878 1.44531 469.5 1.60645 471.785 1.92871C474.07 2.25098 476.253 2.82227 478.333 3.64258C480.413 4.43359 482.361 5.50293 484.178 6.85059C486.023 8.19824 487.664 9.88281 489.1 11.9043C492.146 16.1523 494.095 21.7773 494.944 28.7793C495.12 30.5078 495.486 31.7236 496.043 32.4268C496.98 33.5693 498.255 34.4189 499.866 34.9756C498.167 35.6201 497.054 36.2793 496.526 36.9531C495.647 38.0664 495.12 39.4727 494.944 41.1719C493.978 50.8984 490.711 58.3984 485.145 63.6719C479.783 68.7695 472.825 71.3184 464.271 71.3184C460.843 71.3184 457.767 70.791 455.042 69.7363C453.724 70.498 451.98 70.8789 449.812 70.8789ZM457.854 63.1006C459.261 64.6826 461.121 65.4736 463.436 65.4736C465.779 65.4736 467.801 65.0195 469.5 64.1113C471.229 63.1738 472.679 61.7383 473.851 59.8047C476.224 55.8496 477.41 49.6387 477.41 41.1719C477.41 39.3262 477.117 38.0664 476.531 37.3926C475.74 36.4551 474.437 35.6494 472.62 34.9756C474.407 34.3604 475.564 33.7451 476.092 33.1299C476.971 32.0752 477.41 30.7422 477.41 29.1309C477.41 27.4902 477.293 25.8643 477.059 24.2529C476.824 22.6416 476.443 21.0449 475.916 19.4629C475.418 17.8809 474.773 16.3721 473.982 14.9365C473.221 13.4717 472.298 12.1826 471.214 11.0693C468.841 8.6377 466.043 7.42188 462.82 7.42188C461.824 7.42188 460.857 7.45117 459.92 7.50977C458.982 7.53906 458.294 7.81738 457.854 8.34473V63.1006ZM479.695 15.0684C481.893 21.1914 482.991 26.4355 482.991 30.8008C482.991 32.2949 482.859 33.1738 482.596 33.4375C482.361 33.7012 482.098 33.9355 481.805 34.1406C481.277 34.4922 480.706 34.7705 480.091 34.9756C481.849 35.7666 482.771 36.5283 482.859 37.2607C482.918 37.583 482.947 37.9053 482.947 38.2275V39.3262C482.947 43.2812 482.537 47.1191 481.717 50.8398C480.896 54.5312 480.281 57.0361 479.871 58.3545C481.189 57.9736 482.142 57.1094 482.728 55.7617C483.343 54.3848 483.855 52.9199 484.266 51.3672C484.705 49.7852 485.057 48.1152 485.32 46.3574C485.906 42.7539 486.199 38.9893 486.199 35.0635C486.199 28.0322 485.159 22.3633 483.079 18.0566C482.171 16.3574 481.043 15.3613 479.695 15.0684ZM445.901 58.3545C447.366 57.7979 448.172 55.8789 448.318 52.5977C448.494 49.3164 448.582 44.7754 448.582 38.9746C448.582 33.1738 448.567 29.3213 448.538 27.417C448.538 25.4834 448.523 23.9307 448.494 22.7588C448.406 19.3018 448.069 17.2217 447.483 16.5186C446.927 15.7861 446.399 15.3027 445.901 15.0684C445.901 25.2637 445.726 31.0645 445.374 32.4707C444.964 33.6426 443.968 34.4775 442.386 34.9756C444.144 35.5908 445.14 36.3379 445.374 37.2168C445.726 38.623 445.901 43.7646 445.901 52.6416V58.3545ZM519.686 70.8789C517.752 70.8789 516.038 70.4102 514.544 69.4727C513.05 70.4102 511.658 70.8789 510.369 70.8789C509.109 70.8789 508.069 70.7617 507.249 70.5273C506.429 70.3223 505.711 70.0293 505.096 69.6484C503.836 68.8867 503.206 67.9346 503.206 66.792C503.206 66.2061 503.367 65.6934 503.689 65.2539C504.334 65.752 505.154 66.001 506.15 66.001C508.758 66.001 510.56 64.8877 511.556 62.6611V41.1719C511.556 39.8242 511.277 38.8281 510.721 38.1836C509.842 37.0996 508.333 36.0303 506.194 34.9756C508.187 34.0674 509.476 33.2617 510.062 32.5586C511.058 31.416 511.556 30.127 511.556 28.6914V10.1465C510.56 7.89063 508.758 6.7627 506.15 6.7627C505.154 6.7627 504.334 7.01172 503.689 7.50977C503.367 7.07031 503.206 6.57227 503.206 6.01562C503.206 5.42969 503.367 4.8877 503.689 4.38965C504.041 3.8916 504.51 3.4668 505.096 3.11523C506.443 2.29492 507.981 1.88477 509.71 1.88477C511.468 1.88477 513.079 2.36816 514.544 3.33496C516.067 2.36816 517.811 1.88477 519.773 1.88477C521.736 1.88477 523.523 2.45605 525.135 3.59863C528.24 2.45605 531.829 1.88477 535.901 1.88477C538.919 1.88477 541.497 2.17773 543.636 2.76367L547.547 3.81836C548.016 3.93555 548.47 3.99414 548.909 3.99414C549.729 3.99414 550.14 3.4082 550.14 2.23633C550.14 1.94336 550.037 1.44531 549.832 0.742188C550.652 0.595703 551.692 0.522461 552.952 0.522461C554.212 0.522461 555.281 0.947266 556.16 1.79688C557.039 2.61719 557.479 3.81836 557.479 5.40039C557.479 6.95312 557.2 8.0957 556.644 8.82812C557.435 10 557.83 11.4355 557.83 13.1348C557.83 14.8047 557.259 16.2109 556.116 17.3535C556.468 18.2324 556.644 19.0967 556.644 19.9463C556.644 20.7666 556.497 21.5283 556.204 22.2314C555.94 22.9053 555.604 23.4766 555.193 23.9453C554.373 24.7949 553.538 25.2197 552.688 25.2197C551.458 25.2197 550.345 24.9561 549.349 24.4287C549.7 23.7256 549.876 22.6855 549.876 21.3086C549.876 18.0859 549.07 15.2588 547.459 12.8271C545.262 9.4873 541.966 7.81738 537.571 7.81738C535.345 7.81738 533.323 8.35937 531.507 9.44336C529.72 10.5273 528.46 12.0801 527.728 14.1016V31.1084C528.753 31.7529 529.705 32.0752 530.584 32.0752C531.492 32.0752 532.166 32.0605 532.605 32.0312C533.074 32.002 533.543 31.9434 534.012 31.8555C535.213 31.6797 536.136 31.4453 536.78 31.1523C538.011 30.5664 538.626 29.1309 538.626 26.8457C538.626 25.5566 538.318 24.5605 537.703 23.8574C538.289 23.4473 539.021 23.2422 539.9 23.2422C541.863 23.2422 543.284 24.0332 544.163 25.6152C544.485 26.1719 544.646 26.7871 544.646 27.4609C544.646 28.1348 544.471 28.9697 544.119 29.9658C545.32 31.3428 545.921 32.9834 545.921 34.8877C545.921 36.7627 545.32 38.3887 544.119 39.7656C544.471 40.7617 544.646 41.6699 544.646 42.4902C544.646 43.2812 544.485 44.043 544.163 44.7754C543.841 45.5078 543.445 46.0938 542.977 46.5332C542.068 47.3535 541.043 47.7637 539.9 47.7637C539.08 47.7637 538.348 47.5293 537.703 47.0605C538.318 46.0352 538.626 44.834 538.626 43.457C538.626 40.7324 537.879 39.0479 536.385 38.4033C535.066 37.876 533.558 37.6123 531.858 37.6123C530.159 37.6123 528.782 37.9199 527.728 38.5352V60.5078C529.427 63.4961 532.708 64.9902 537.571 64.9902C543.079 64.9902 546.829 63.291 548.821 59.8926C551.136 55.9961 552.293 51.8213 552.293 47.3682C552.293 46.0791 552.176 45.083 551.941 44.3799C552.674 43.6475 553.436 43.2812 554.227 43.2812C555.018 43.2812 555.618 43.3984 556.028 43.6328C556.438 43.8379 556.805 44.1016 557.127 44.4238C557.83 45.2148 558.182 46.0205 558.182 46.8408L557.918 48.9941C557.918 49.5508 558.064 50.0049 558.357 50.3564C558.943 50.9717 559.236 51.5576 559.236 52.1143C559.236 52.6416 559.061 53.2861 558.709 54.0479C559.383 54.4287 559.983 55 560.511 55.7617C561.067 56.4941 561.346 57.2559 561.346 58.0469C561.346 59.7168 560.643 61.2109 559.236 62.5293C559.852 63.4082 560.159 64.6826 560.159 66.3525C560.159 67.9932 559.676 69.3848 558.709 70.5273C557.771 71.6992 556.541 72.2852 555.018 72.2852C554.197 72.2852 553.348 72.1973 552.469 72.0215C552.586 71.377 552.645 70.7324 552.645 70.0879C552.645 68.7402 552.029 68.0664 550.799 68.0664C549.422 68.0664 548.045 68.3447 546.668 68.9014C543.416 70.2197 539.71 70.8789 535.55 70.8789C531.419 70.8789 527.903 70.3369 525.003 69.2529C523.479 70.3369 521.707 70.8789 519.686 70.8789ZM515.774 58.3545C517.239 57.7979 518.045 55.8789 518.191 52.5977C518.367 49.3164 518.455 44.7754 518.455 38.9746C518.455 33.1738 518.44 29.3213 518.411 27.417C518.411 25.4834 518.396 23.9307 518.367 22.7588C518.279 19.3018 517.942 17.2217 517.356 16.5186C516.8 15.7861 516.272 15.3027 515.774 15.0684C515.774 25.2637 515.599 31.0645 515.247 32.4707C514.837 33.6426 513.841 34.4775 512.259 34.9756C514.017 35.5908 515.013 36.3379 515.247 37.2168C515.599 38.623 515.774 43.7646 515.774 52.6416V58.3545ZM526.849 57.915C526.849 58.0029 526.863 58.0762 526.893 58.1348L526.849 57.915ZM578.748 68.2861C576.404 70.6299 574.178 71.8018 572.068 71.8018C570.721 71.8018 569.812 71.3037 569.344 70.3076C570.018 69.4873 570.354 68.2568 570.354 66.6162V65.957C570.354 65.7812 570.34 65.6201 570.311 65.4736C568.846 64.1553 568.113 62.6025 568.113 60.8154C568.113 58.999 568.963 57.1533 570.662 55.2783C570.164 54.2822 569.915 53.2275 569.915 52.1143C569.915 50.9717 570.076 49.917 570.398 48.9502C570.75 47.9541 571.219 47.0898 571.805 46.3574C573.035 44.7461 574.236 43.9404 575.408 43.9404C576.609 43.9404 577.459 44.4092 577.957 45.3467C576.902 46.46 576.375 48.2031 576.375 50.5762C576.375 52.9492 576.712 55.0146 577.386 56.7725C578.089 58.5303 579.07 60.0391 580.33 61.2988C583.025 64.0527 586.468 65.4297 590.657 65.4297C593.47 65.4297 595.857 64.624 597.82 63.0127C599.93 61.2842 600.984 58.9258 600.984 55.9375C600.984 53.8281 600.486 52.1143 599.49 50.7959C597.938 48.7451 595.506 46.5771 592.195 44.292C589.646 42.5049 587.61 41.6113 586.087 41.6113C584.534 41.6113 582.82 42.2412 580.945 43.501C581.443 42.0068 581.692 40.6152 581.692 39.3262C581.692 39.0332 581.414 38.6523 580.857 38.1836L579.231 36.7334C574.104 32.0166 571.072 27.6367 570.135 23.5938C569.812 22.1875 569.651 20.4297 569.651 18.3203C569.651 16.1816 570.164 14.0283 571.189 11.8604C572.244 9.66309 573.68 7.80273 575.496 6.2793C579.275 3.05664 584.08 1.44531 589.91 1.44531C593.455 1.44531 596.707 2.0166 599.666 3.15918C600.926 3.65723 602.361 3.90625 603.973 3.90625C604.646 3.90625 605.247 3.87695 605.774 3.81836C606.331 3.73047 606.814 3.42285 607.225 2.89551C607.605 2.33887 607.796 1.84082 607.796 1.40137C607.796 0.961914 607.737 0.595703 607.62 0.302734C607.825 0.214844 608.104 0.170898 608.455 0.170898C608.836 0.170898 609.246 0.302734 609.686 0.566406C610.125 0.800781 610.521 1.1377 610.872 1.57715C611.663 2.57324 612.059 3.70117 612.059 4.96094C612.059 6.19141 611.707 7.12891 611.004 7.77344C612 8.65234 612.498 10.0146 612.498 11.8604C612.498 13.6768 611.883 15.2002 610.652 16.4307C610.887 17.2217 611.004 17.9395 611.004 18.584C611.004 19.1992 610.887 19.7998 610.652 20.3857C610.447 20.9424 610.154 21.4258 609.773 21.8359C608.924 22.7441 608.118 23.1982 607.356 23.1982C606.155 23.1982 605.145 22.9932 604.324 22.583C604.822 21.4111 605.071 20.1514 605.071 18.8037C605.071 17.4561 604.764 16.0791 604.148 14.6729C603.562 13.2373 602.728 11.9922 601.644 10.9375C599.358 8.76953 596.37 7.68555 592.679 7.68555C590.335 7.68555 588.416 8.40332 586.922 9.83887C585.516 11.1865 584.812 12.8125 584.812 14.7168C584.812 16.1523 585.164 17.3535 585.867 18.3203C587.098 19.9902 589.046 21.7188 591.712 23.5059L593.821 24.9121C594.993 25.6445 595.784 26.0107 596.194 26.0107C596.604 26.0107 597.015 25.9668 597.425 25.8789C597.835 25.791 598.289 25.6738 598.787 25.5273C599.842 25.1758 600.867 24.6777 601.863 24.0332L601.292 26.4941C601.116 27.3145 601.028 27.915 601.028 28.2959C601.028 28.9111 601.336 29.4678 601.951 29.9658C607.43 34.7119 611.092 38.6816 612.938 41.875C614.549 44.6582 615.354 47.6611 615.354 50.8838C615.354 54.1064 614.827 56.875 613.772 59.1895C612.718 61.5039 611.18 63.5547 609.158 65.3418C604.705 69.3262 598.919 71.3184 591.8 71.3184C586.79 71.3184 582.439 70.3076 578.748 68.2861ZM575.76 15.0684C574.646 15.5371 574.09 16.7529 574.09 18.7158C574.09 22.7295 576.771 27.1387 582.132 31.9434L584.769 34.3164C585.677 35.1367 586.072 35.7666 585.955 36.2061C585.867 36.6455 585.779 36.9971 585.691 37.2607C585.633 37.5244 585.56 37.7734 585.472 38.0078C585.384 38.2422 585.325 38.418 585.296 38.5352C586.321 37.9199 587.156 37.6123 587.801 37.6123C589.09 37.6123 590.306 37.9639 591.448 38.667C597.103 42.1826 600.94 45.3174 602.962 48.0713C604.427 50.0928 605.188 52.6123 605.247 55.6299C605.247 56.7139 605.174 57.6221 605.027 58.3545C606.58 57.3584 607.356 55.7764 607.356 53.6084C607.356 51.499 607.063 49.873 606.478 48.7305C605.921 47.5879 605.262 46.5771 604.5 45.6982C603.738 44.79 602.742 43.8086 601.512 42.7539C600.311 41.6992 598.816 40.5566 597.029 39.3262L590.789 35.0635C585.662 31.6943 581.766 28.1348 579.1 24.3848C576.756 21.0742 575.643 17.9688 575.76 15.0684Z" fill="#FAEADC"/>
</svg>
