<?xml version="1.0" encoding="UTF-8"?>
<svg xmlns="http://www.w3.org/2000/svg" viewBox="0 0 54.57 48.61">
  <defs>
    <style>
      .cls-1 {
        fill: #fe3452;
      }
    </style>
  </defs>
  <g>
    <path class="cls-1" d="M51.78,25.84c-2.26,4.04-5.43,7.09-8.69,10.03-4.34,3.91-8.78,7.72-13.21,11.54-1.77,1.53-3.23,1.63-4.95,.14-6.09-5.29-12.5-10.22-18.04-16.12C2.58,26.84-.42,21.66,.05,15.04,.64,6.57,6.94,.21,14.97,.07,19.38,0,23.02,1.74,25.9,5c.99,1.11,1.52,1.43,2.7,.09C32.58,.56,37.63-1,43.43,.63c6.04,1.7,9.42,6.05,10.72,12.01,1.03,4.74,.15,9.23-2.37,13.2Z"/>
  </g>
</svg>