<?xml version="1.0" encoding="UTF-8"?>
<svg xmlns="http://www.w3.org/2000/svg" viewBox="0 0 55.76 55.77">
  <defs>
    <style>
      .cls-1 {
        fill: #feda4c;
      }

      .cls-2 {
        fill: #bc692f;
      }

      .cls-3 {
        fill: #bd6a2f;
      }
    </style>
  </defs>
  <g >
    <g >
      <g>
        <path class="cls-1" d="M25.59,0h4.47c.51,.2,1.06,.17,1.58,.24,6.08,.88,11.34,3.42,15.73,7.72,4.27,4.19,6.92,9.24,7.98,15.13,.15,.87,.16,1.75,.41,2.6v4.36c-.23,.74-.22,1.53-.35,2.29-1.16,6.71-4.26,12.36-9.47,16.74-6.95,5.84-14.97,7.85-23.86,6.04-6.72-1.37-12.18-4.89-16.33-10.33C1.07,38.67-.72,31.73,.26,24.1c.71-5.51,2.95-10.37,6.62-14.54C11.22,4.63,16.63,1.58,23.1,.41c.83-.15,1.69-.14,2.49-.41Zm2.29,32.03c-1.87,0-3.74,0-5.61,0-2.94,0-5.88,0-8.82,0-1.44,0-2.22,.8-2.22,2.24,0,.66,.11,1.3,.28,1.93,.81,3.08,2.48,5.63,4.88,7.69,3.8,3.25,8.21,4.9,13.21,4.31,6-.71,10.6-3.73,13.54-9.08,.84-1.52,1.38-3.16,1.39-4.93,0-1.41-.75-2.14-2.16-2.16-.22,0-.44,0-.65,0-4.61,0-9.22,0-13.83,0Zm-2.92-10.35c-.03-.17-.04-.38-.1-.59-.59-2.13-1.72-3.92-3.45-5.28-1.87-1.47-3.87-1.39-5.71,.13-1.29,1.07-2.2,2.4-2.87,3.92-.26,.58-.47,1.18-.52,1.82-.01,.21-.09,.47,.14,.6,.24,.14,.4-.1,.56-.23,.82-.69,1.55-1.48,2.41-2.12,1.07-.8,2.2-1.43,3.6-1.29,1.25,.12,2.25,.79,3.18,1.56,.73,.6,1.4,1.26,2.11,1.88,.14,.13,.31,.32,.52,.2,.21-.11,.11-.36,.14-.6Zm11.99-6.78c-.45-.02-1.05,.11-1.6,.42-2.44,1.35-3.79,3.5-4.5,6.12-.08,.3-.23,.77,.12,.95,.31,.16,.55-.26,.8-.44,.15-.1,.27-.25,.4-.37,.75-.74,1.54-1.43,2.42-2.01,1.73-1.12,3.43-1.08,5.14,.05,1.02,.68,1.88,1.53,2.78,2.35,.23,.21,.47,.6,.8,.4,.31-.18,.15-.6,.09-.91-.42-1.94-1.43-3.55-2.81-4.93-.94-.94-2.04-1.63-3.63-1.62Z"/>
        <path class="cls-2" d="M27.88,32.03c4.61,0,9.22,0,13.83,0,.22,0,.44,0,.65,0,1.41,.03,2.17,.75,2.16,2.16,0,1.76-.55,3.41-1.39,4.93-2.94,5.35-7.54,8.37-13.54,9.08-5,.59-9.41-1.05-13.21-4.31-2.4-2.06-4.07-4.61-4.88-7.69-.17-.63-.28-1.28-.28-1.93,0-1.44,.78-2.23,2.22-2.24,2.94,0,5.88,0,8.82,0,1.87,0,3.74,0,5.61,0Z"/>
        <path class="cls-3" d="M24.96,21.67c-.03,.24,.07,.49-.14,.6-.21,.11-.38-.08-.52-.2-.71-.62-1.38-1.28-2.11-1.88-.93-.77-1.93-1.44-3.18-1.56-1.4-.14-2.53,.49-3.6,1.29-.86,.65-1.59,1.43-2.41,2.12-.16,.13-.32,.37-.56,.23-.23-.13-.15-.39-.14-.6,.05-.64,.26-1.24,.52-1.82,.67-1.51,1.58-2.85,2.87-3.92,1.84-1.52,3.84-1.6,5.71-.13,1.74,1.36,2.87,3.15,3.45,5.28,.06,.21,.07,.43,.1,.59Z"/>
        <path class="cls-3" d="M36.95,14.89c1.59,0,2.68,.68,3.63,1.62,1.38,1.38,2.4,2.99,2.81,4.93,.07,.31,.22,.73-.09,.91-.33,.2-.58-.19-.8-.4-.9-.82-1.76-1.67-2.78-2.35-1.71-1.14-3.41-1.18-5.14-.05-.89,.58-1.67,1.27-2.42,2.01-.13,.13-.25,.27-.4,.37-.26,.18-.49,.6-.8,.44-.34-.18-.2-.64-.12-.95,.71-2.62,2.06-4.77,4.5-6.12,.55-.3,1.15-.44,1.6-.42Z"/>
      </g>
    </g>
  </g>
</svg>